<svg version="1.1" xmlns="http://www.w3.org/2000/svg" viewBox="0 0 982.0836023687862 724.0800200872163" width="982.0836023687862" height="724.0800200872163">
  <!-- svg-source:excalidraw -->
  
  <defs>
    <style class="style-fonts">
      @font-face {
        font-family: "Virgil";
        src: url("https://excalidraw.com/Virgil.woff2");
      }
      @font-face {
        font-family: "Cascadia";
        src: url("https://excalidraw.com/Cascadia.woff2");
      }
      @font-face {
        font-family: "Assistant";
        src: url("https://excalidraw.com/Assistant-Regular.woff2");
      }
    </style>
    
  </defs>
  <g stroke-linecap="round" transform="translate(94.41406446826113 10) rotate(0 427.17961450344865 64.90030424428801)"><path d="M32 0 C251.6 0, 471.21 0, 822.36 0 C843.69 0, 854.36 10.67, 854.36 32 C854.36 58.24, 854.36 84.48, 854.36 97.8 C854.36 119.13, 843.69 129.8, 822.36 129.8 C609.69 129.8, 397.02 129.8, 32 129.8 C10.67 129.8, 0 119.13, 0 97.8 C0 75.71, 0 53.63, 0 32 C0 10.67, 10.67 0, 32 0" stroke="none" stroke-width="0" fill="#d0bfff"></path><path d="M32 0 C274.83 0, 517.66 0, 822.36 0 M32 0 C230.83 0, 429.65 0, 822.36 0 M822.36 0 C843.69 0, 854.36 10.67, 854.36 32 M822.36 0 C843.69 0, 854.36 10.67, 854.36 32 M854.36 32 C854.36 48.83, 854.36 65.67, 854.36 97.8 M854.36 32 C854.36 47.23, 854.36 62.46, 854.36 97.8 M854.36 97.8 C854.36 119.13, 843.69 129.8, 822.36 129.8 M854.36 97.8 C854.36 119.13, 843.69 129.8, 822.36 129.8 M822.36 129.8 C571.83 129.8, 321.29 129.8, 32 129.8 M822.36 129.8 C591.76 129.8, 361.16 129.8, 32 129.8 M32 129.8 C10.67 129.8, 0 119.13, 0 97.8 M32 129.8 C10.67 129.8, 0 119.13, 0 97.8 M0 97.8 C0 75.45, 0 53.11, 0 32 M0 97.8 C0 77.04, 0 56.27, 0 32 M0 32 C0 10.67, 10.67 0, 32 0 M0 32 C0 10.67, 10.67 0, 32 0" stroke="#1e1e1e" stroke-width="2" fill="none"></path></g><g transform="translate(422.7938742842098 42.70030424428796) rotate(0 98.7998046875 32.200000000000045)"><text x="98.7998046875" y="25.760546874999996" font-family="Helvetica, Segoe UI Emoji" font-size="28px" fill="#1e1e1e" text-anchor="middle" style="white-space: pre;" direction="ltr" dominant-baseline="alphabetic">PERSISTENCE</text><text x="98.7998046875" y="57.96054687499999" font-family="Helvetica, Segoe UI Emoji" font-size="28px" fill="#1e1e1e" text-anchor="middle" style="white-space: pre;" direction="ltr" dominant-baseline="alphabetic">LAYER</text></g><g stroke-linecap="round" transform="translate(739.5424618816342 161.6638944623969) rotate(0 105.58407705413993 158.86044620989924)"><path d="M32 0 C86.95 0, 141.9 0, 179.17 0 C200.5 0, 211.17 10.67, 211.17 32 C211.17 87.31, 211.17 142.62, 211.17 285.72 C211.17 307.05, 200.5 317.72, 179.17 317.72 C148.15 317.72, 117.13 317.72, 32 317.72 C10.67 317.72, 0 307.05, 0 285.72 C0 218.06, 0 150.39, 0 32 C0 10.67, 10.67 0, 32 0" stroke="none" stroke-width="0" fill="#ffd8a8"></path><path d="M32 0 C66.18 0, 100.36 0, 179.17 0 M32 0 C87.59 0, 143.18 0, 179.17 0 M179.17 0 C200.5 0, 211.17 10.67, 211.17 32 M179.17 0 C200.5 0, 211.17 10.67, 211.17 32 M211.17 32 C211.17 87.86, 211.17 143.73, 211.17 285.72 M211.17 32 C211.17 128.35, 211.17 224.7, 211.17 285.72 M211.17 285.72 C211.17 307.05, 200.5 317.72, 179.17 317.72 M211.17 285.72 C211.17 307.05, 200.5 317.72, 179.17 317.72 M179.17 317.72 C131.14 317.72, 83.11 317.72, 32 317.72 M179.17 317.72 C145 317.72, 110.83 317.72, 32 317.72 M32 317.72 C10.67 317.72, 0 307.05, 0 285.72 M32 317.72 C10.67 317.72, 0 307.05, 0 285.72 M0 285.72 C0 211.4, 0 137.08, 0 32 M0 285.72 C0 188.22, 0 90.73, 0 32 M0 32 C0 10.67, 10.67 0, 32 0 M0 32 C0 10.67, 10.67 0, 32 0" stroke="#1e1e1e" stroke-width="2" fill="none"></path></g><g transform="translate(750.4966561232741 166.6638944623969) rotate(0 94.6298828125 32.200000000000045)"><text x="94.6298828125" y="25.760546874999996" font-family="Helvetica, Segoe UI Emoji" font-size="28px" fill="#1e1e1e" text-anchor="middle" style="white-space: pre;" direction="ltr" dominant-baseline="alphabetic">INTEGRATION</text><text x="94.6298828125" y="57.96054687499999" font-family="Helvetica, Segoe UI Emoji" font-size="28px" fill="#1e1e1e" text-anchor="middle" style="white-space: pre;" direction="ltr" dominant-baseline="alphabetic">LAYER</text></g><g stroke-linecap="round" transform="translate(412.1349568880596 159.72657194764224) rotate(0 108.49006082627284 159.82910746727657)"><path d="M32 0 C66.7 0, 101.41 0, 184.98 0 C206.31 0, 216.98 10.67, 216.98 32 C216.98 111.58, 216.98 191.16, 216.98 287.66 C216.98 308.99, 206.31 319.66, 184.98 319.66 C136.91 319.66, 88.83 319.66, 32 319.66 C10.67 319.66, 0 308.99, 0 287.66 C0 233.55, 0 179.45, 0 32 C0 10.67, 10.67 0, 32 0" stroke="none" stroke-width="0" fill="#b2f2bb"></path><path d="M32 0 C82.22 0, 132.43 0, 184.98 0 M32 0 C69.52 0, 107.04 0, 184.98 0 M184.98 0 C206.31 0, 216.98 10.67, 216.98 32 M184.98 0 C206.31 0, 216.98 10.67, 216.98 32 M216.98 32 C216.98 93.89, 216.98 155.79, 216.98 287.66 M216.98 32 C216.98 128.98, 216.98 225.96, 216.98 287.66 M216.98 287.66 C216.98 308.99, 206.31 319.66, 184.98 319.66 M216.98 287.66 C216.98 308.99, 206.31 319.66, 184.98 319.66 M184.98 319.66 C150.43 319.66, 115.88 319.66, 32 319.66 M184.98 319.66 C154.28 319.66, 123.59 319.66, 32 319.66 M32 319.66 C10.67 319.66, 0 308.99, 0 287.66 M32 319.66 C10.67 319.66, 0 308.99, 0 287.66 M0 287.66 C0 193.88, 0 100.11, 0 32 M0 287.66 C0 192.57, 0 97.49, 0 32 M0 32 C0 10.67, 10.67 0, 32 0 M0 32 C0 10.67, 10.67 0, 32 0" stroke="#1e1e1e" stroke-width="2" fill="none"></path></g><g transform="translate(427.2734552143329 164.72657194764224) rotate(0 93.3515625 32.200000000000045)"><text x="93.3515625" y="25.760546874999996" font-family="Helvetica, Segoe UI Emoji" font-size="28px" fill="#1e1e1e" text-anchor="middle" style="white-space: pre;" direction="ltr" dominant-baseline="alphabetic">PROCESSING</text><text x="93.3515625" y="57.96054687499999" font-family="Helvetica, Segoe UI Emoji" font-size="28px" fill="#1e1e1e" text-anchor="middle" style="white-space: pre;" direction="ltr" dominant-baseline="alphabetic">LAYER</text></g><g stroke-linecap="round" transform="translate(94.41406446826113 159.72657194764224) rotate(0 106.55273831151771 159.82910746727657)"><path d="M32 0 C72.28 0, 112.56 0, 181.11 0 C202.44 0, 213.11 10.67, 213.11 32 C213.11 130.3, 213.11 228.59, 213.11 287.66 C213.11 308.99, 202.44 319.66, 181.11 319.66 C144.87 319.66, 108.63 319.66, 32 319.66 C10.67 319.66, 0 308.99, 0 287.66 C0 215.86, 0 144.06, 0 32 C0 10.67, 10.67 0, 32 0" stroke="none" stroke-width="0" fill="#e9ecef"></path><path d="M32 0 C74.64 0, 117.28 0, 181.11 0 M32 0 C81.51 0, 131.03 0, 181.11 0 M181.11 0 C202.44 0, 213.11 10.67, 213.11 32 M181.11 0 C202.44 0, 213.11 10.67, 213.11 32 M213.11 32 C213.11 132.63, 213.11 233.26, 213.11 287.66 M213.11 32 C213.11 111.22, 213.11 190.44, 213.11 287.66 M213.11 287.66 C213.11 308.99, 202.44 319.66, 181.11 319.66 M213.11 287.66 C213.11 308.99, 202.44 319.66, 181.11 319.66 M181.11 319.66 C149.47 319.66, 117.83 319.66, 32 319.66 M181.11 319.66 C142.49 319.66, 103.86 319.66, 32 319.66 M32 319.66 C10.67 319.66, 0 308.99, 0 287.66 M32 319.66 C10.67 319.66, 0 308.99, 0 287.66 M0 287.66 C0 192.41, 0 97.15, 0 32 M0 287.66 C0 212.31, 0 136.96, 0 32 M0 32 C0 10.67, 10.67 0, 32 0 M0 32 C0 10.67, 10.67 0, 32 0" stroke="#1e1e1e" stroke-width="2" fill="none"></path></g><g transform="translate(154.29102152977885 164.72657194764224) rotate(0 46.67578125 32.200000000000045)"><text x="46.67578125" y="25.760546874999996" font-family="Helvetica, Segoe UI Emoji" font-size="28px" fill="#1e1e1e" text-anchor="middle" style="white-space: pre;" direction="ltr" dominant-baseline="alphabetic">EVENT</text><text x="46.67578125" y="57.96054687499999" font-family="Helvetica, Segoe UI Emoji" font-size="28px" fill="#1e1e1e" text-anchor="middle" style="white-space: pre;" direction="ltr" dominant-baseline="alphabetic">LAYER</text></g><g stroke-linecap="round" transform="translate(94.41406446826113 500.97454346418044) rotate(0 427.17961450344865 43.5897565819846)"><path d="M21.79 0 C296.81 0, 571.83 0, 832.56 0 C847.09 0, 854.36 7.26, 854.36 21.79 C854.36 34.26, 854.36 46.73, 854.36 65.38 C854.36 79.91, 847.09 87.18, 832.56 87.18 C541.87 87.18, 251.17 87.18, 21.79 87.18 C7.26 87.18, 0 79.91, 0 65.38 C0 52.9, 0 40.42, 0 21.79 C0 7.26, 7.26 0, 21.79 0" stroke="none" stroke-width="0" fill="#a5d8ff"></path><path d="M21.79 0 C268.35 0, 514.91 0, 832.56 0 M21.79 0 C215.04 0, 408.29 0, 832.56 0 M832.56 0 C847.09 0, 854.36 7.26, 854.36 21.79 M832.56 0 C847.09 0, 854.36 7.26, 854.36 21.79 M854.36 21.79 C854.36 34.19, 854.36 46.58, 854.36 65.38 M854.36 21.79 C854.36 33.65, 854.36 45.5, 854.36 65.38 M854.36 65.38 C854.36 79.91, 847.09 87.18, 832.56 87.18 M854.36 65.38 C854.36 79.91, 847.09 87.18, 832.56 87.18 M832.56 87.18 C617.38 87.18, 402.2 87.18, 21.79 87.18 M832.56 87.18 C575.1 87.18, 317.64 87.18, 21.79 87.18 M21.79 87.18 C7.26 87.18, 0 79.91, 0 65.38 M21.79 87.18 C7.26 87.18, 0 79.91, 0 65.38 M0 65.38 C0 48.16, 0 30.93, 0 21.79 M0 65.38 C0 53.25, 0 41.12, 0 21.79 M0 21.79 C0 7.26, 7.26 0, 21.79 0 M0 21.79 C0 7.26, 7.26 0, 21.79 0" stroke="#1e1e1e" stroke-width="2" fill="none"></path></g><g transform="translate(430.8534445967098 512.3643000461652) rotate(0 90.740234375 32.200000000000045)"><text x="90.740234375" y="25.760546874999996" font-family="Helvetica, Segoe UI Emoji" font-size="28px" fill="#1e1e1e" text-anchor="middle" style="white-space: pre;" direction="ltr" dominant-baseline="alphabetic">MONITORING</text><text x="90.740234375" y="57.96054687499999" font-family="Helvetica, Segoe UI Emoji" font-size="28px" fill="#1e1e1e" text-anchor="middle" style="white-space: pre;" direction="ltr" dominant-baseline="alphabetic">LAYER</text></g><g stroke-linecap="round" transform="translate(94.41406446826113 621.0885393789827) rotate(0 427.17961450344865 46.49574035411683)"><path d="M23.25 0 C271.48 0, 519.7 0, 831.11 0 C846.61 0, 854.36 7.75, 854.36 23.25 C854.36 38.21, 854.36 53.18, 854.36 69.74 C854.36 85.24, 846.61 92.99, 831.11 92.99 C665.76 92.99, 500.41 92.99, 23.25 92.99 C7.75 92.99, 0 85.24, 0 69.74 C0 58.45, 0 47.15, 0 23.25 C0 7.75, 7.75 0, 23.25 0" stroke="none" stroke-width="0" fill="#ffec99"></path><path d="M23.25 0 C238.34 0, 453.43 0, 831.11 0 M23.25 0 C199.32 0, 375.4 0, 831.11 0 M831.11 0 C846.61 0, 854.36 7.75, 854.36 23.25 M831.11 0 C846.61 0, 854.36 7.75, 854.36 23.25 M854.36 23.25 C854.36 40.83, 854.36 58.42, 854.36 69.74 M854.36 23.25 C854.36 39.25, 854.36 55.25, 854.36 69.74 M854.36 69.74 C854.36 85.24, 846.61 92.99, 831.11 92.99 M854.36 69.74 C854.36 85.24, 846.61 92.99, 831.11 92.99 M831.11 92.99 C626.24 92.99, 421.37 92.99, 23.25 92.99 M831.11 92.99 C606.99 92.99, 382.87 92.99, 23.25 92.99 M23.25 92.99 C7.75 92.99, 0 85.24, 0 69.74 M23.25 92.99 C7.75 92.99, 0 85.24, 0 69.74 M0 69.74 C0 59.45, 0 49.15, 0 23.25 M0 69.74 C0 51.31, 0 32.87, 0 23.25 M0 23.25 C0 7.75, 7.75 0, 23.25 0 M0 23.25 C0 7.75, 7.75 0, 23.25 0" stroke="#1e1e1e" stroke-width="2" fill="none"></path></g><g transform="translate(450.8075461592098 635.3842797330994) rotate(0 70.7861328125 32.200000000000045)"><text x="70.7861328125" y="25.760546874999996" font-family="Helvetica, Segoe UI Emoji" font-size="28px" fill="#1e1e1e" text-anchor="middle" style="white-space: pre;" direction="ltr" dominant-baseline="alphabetic">SECURITY</text><text x="70.7861328125" y="57.96054687499999" font-family="Helvetica, Segoe UI Emoji" font-size="28px" fill="#1e1e1e" text-anchor="middle" style="white-space: pre;" direction="ltr" dominant-baseline="alphabetic">LAYER</text></g><g stroke-linecap="round" transform="translate(104.19469326990293 376.14543599690523) rotate(0 96.86612573774346 46.49574035411683)"><path d="M23.25 0 C53.47 0, 83.7 0, 170.48 0 C185.98 0, 193.73 7.75, 193.73 23.25 C193.73 38.62, 193.73 54, 193.73 69.74 C193.73 85.24, 185.98 92.99, 170.48 92.99 C133.71 92.99, 96.94 92.99, 23.25 92.99 C7.75 92.99, 0 85.24, 0 69.74 C0 55.37, 0 41, 0 23.25 C0 7.75, 7.75 0, 23.25 0" stroke="none" stroke-width="0" fill="#fff"></path><path d="M23.25 0 C63.37 0, 103.49 0, 170.48 0 M23.25 0 C76.01 0, 128.77 0, 170.48 0 M170.48 0 C185.98 0, 193.73 7.75, 193.73 23.25 M170.48 0 C185.98 0, 193.73 7.75, 193.73 23.25 M193.73 23.25 C193.73 35.36, 193.73 47.46, 193.73 69.74 M193.73 23.25 C193.73 35.49, 193.73 47.74, 193.73 69.74 M193.73 69.74 C193.73 85.24, 185.98 92.99, 170.48 92.99 M193.73 69.74 C193.73 85.24, 185.98 92.99, 170.48 92.99 M170.48 92.99 C138.99 92.99, 107.49 92.99, 23.25 92.99 M170.48 92.99 C113.22 92.99, 55.96 92.99, 23.25 92.99 M23.25 92.99 C7.75 92.99, 0 85.24, 0 69.74 M23.25 92.99 C7.75 92.99, 0 85.24, 0 69.74 M0 69.74 C0 55.52, 0 41.3, 0 23.25 M0 69.74 C0 52.54, 0 35.34, 0 23.25 M0 23.25 C0 7.75, 7.75 0, 23.25 0 M0 23.25 C0 7.75, 7.75 0, 23.25 0" stroke="#1e1e1e" stroke-width="2" fill="none"></path></g><g transform="translate(120.94363150764639 406.54117635102193) rotate(0 80.1171875 16.09999999999991)"><text x="80.1171875" y="25.760546874999996" font-family="Helvetica, Segoe UI Emoji" font-size="28px" fill="#1e1e1e" text-anchor="middle" style="white-space: pre;" direction="ltr" dominant-baseline="alphabetic">PRODUCER</text></g><g stroke-linecap="round" transform="translate(424.7275532339636 266.2793102591613) rotate(0 96.86612573774346 46.49574035411683)"><path d="M23.25 0 C70.16 0, 117.06 0, 170.48 0 C185.98 0, 193.73 7.75, 193.73 23.25 C193.73 35.84, 193.73 48.44, 193.73 69.74 C193.73 85.24, 185.98 92.99, 170.48 92.99 C124.99 92.99, 79.49 92.99, 23.25 92.99 C7.75 92.99, 0 85.24, 0 69.74 C0 59.48, 0 49.22, 0 23.25 C0 7.75, 7.75 0, 23.25 0" stroke="none" stroke-width="0" fill="#fff"></path><path d="M23.25 0 C75.83 0, 128.42 0, 170.48 0 M23.25 0 C77.91 0, 132.57 0, 170.48 0 M170.48 0 C185.98 0, 193.73 7.75, 193.73 23.25 M170.48 0 C185.98 0, 193.73 7.75, 193.73 23.25 M193.73 23.25 C193.73 36.53, 193.73 49.82, 193.73 69.74 M193.73 23.25 C193.73 39.4, 193.73 55.55, 193.73 69.74 M193.73 69.74 C193.73 85.24, 185.98 92.99, 170.48 92.99 M193.73 69.74 C193.73 85.24, 185.98 92.99, 170.48 92.99 M170.48 92.99 C123.01 92.99, 75.53 92.99, 23.25 92.99 M170.48 92.99 C124.87 92.99, 79.26 92.99, 23.25 92.99 M23.25 92.99 C7.75 92.99, 0 85.24, 0 69.74 M23.25 92.99 C7.75 92.99, 0 85.24, 0 69.74 M0 69.74 C0 53.4, 0 37.06, 0 23.25 M0 69.74 C0 56.22, 0 42.71, 0 23.25 M0 23.25 C0 7.75, 7.75 0, 23.25 0 M0 23.25 C0 7.75, 7.75 0, 23.25 0" stroke="#1e1e1e" stroke-width="2" fill="none"></path></g><g transform="translate(432.91789772170705 280.5750506132781) rotate(0 88.67578125 32.200000000000045)"><text x="88.67578125" y="25.760546874999996" font-family="Helvetica, Segoe UI Emoji" font-size="28px" fill="#1e1e1e" text-anchor="middle" style="white-space: pre;" direction="ltr" dominant-baseline="alphabetic">DIMENSIONS</text><text x="88.67578125" y="57.96054687499999" font-family="Helvetica, Segoe UI Emoji" font-size="28px" fill="#1e1e1e" text-anchor="middle" style="white-space: pre;" direction="ltr" dominant-baseline="alphabetic">MEASURE</text></g><g stroke-linecap="round" transform="translate(424.7275532339627 376.14543599690523) rotate(0 96.86612573774346 46.49574035411683)"><path d="M23.25 0 C67.15 0, 111.06 0, 170.48 0 C185.98 0, 193.73 7.75, 193.73 23.25 C193.73 34.59, 193.73 45.94, 193.73 69.74 C193.73 85.24, 185.98 92.99, 170.48 92.99 C123.52 92.99, 76.55 92.99, 23.25 92.99 C7.75 92.99, 0 85.24, 0 69.74 C0 55.76, 0 41.78, 0 23.25 C0 7.75, 7.75 0, 23.25 0" stroke="none" stroke-width="0" fill="#fff"></path><path d="M23.25 0 C70.29 0, 117.33 0, 170.48 0 M23.25 0 C62.09 0, 100.94 0, 170.48 0 M170.48 0 C185.98 0, 193.73 7.75, 193.73 23.25 M170.48 0 C185.98 0, 193.73 7.75, 193.73 23.25 M193.73 23.25 C193.73 36.23, 193.73 49.21, 193.73 69.74 M193.73 23.25 C193.73 38.92, 193.73 54.59, 193.73 69.74 M193.73 69.74 C193.73 85.24, 185.98 92.99, 170.48 92.99 M193.73 69.74 C193.73 85.24, 185.98 92.99, 170.48 92.99 M170.48 92.99 C140.04 92.99, 109.59 92.99, 23.25 92.99 M170.48 92.99 C137.27 92.99, 104.06 92.99, 23.25 92.99 M23.25 92.99 C7.75 92.99, 0 85.24, 0 69.74 M23.25 92.99 C7.75 92.99, 0 85.24, 0 69.74 M0 69.74 C0 53.31, 0 36.87, 0 23.25 M0 69.74 C0 51.94, 0 34.14, 0 23.25 M0 23.25 C0 7.75, 7.75 0, 23.25 0 M0 23.25 C0 7.75, 7.75 0, 23.25 0" stroke="#1e1e1e" stroke-width="2" fill="none"></path></g><g transform="translate(450.02141334670614 390.441176351022) rotate(0 71.572265625 32.200000000000045)"><text x="71.572265625" y="25.760546874999996" font-family="Helvetica, Segoe UI Emoji" font-size="28px" fill="#1e1e1e" text-anchor="middle" style="white-space: pre;" direction="ltr" dominant-baseline="alphabetic">MACHINE</text><text x="71.572265625" y="57.96054687499999" font-family="Helvetica, Segoe UI Emoji" font-size="28px" fill="#1e1e1e" text-anchor="middle" style="white-space: pre;" direction="ltr" dominant-baseline="alphabetic">LEARNING</text></g><g stroke-linecap="round" transform="translate(748.7618330799869 376.14543599690523) rotate(0 96.86612573774346 46.49574035411683)"><path d="M23.25 0 C73.98 0, 124.71 0, 170.48 0 C185.98 0, 193.73 7.75, 193.73 23.25 C193.73 38.53, 193.73 53.82, 193.73 69.74 C193.73 85.24, 185.98 92.99, 170.48 92.99 C119.07 92.99, 67.66 92.99, 23.25 92.99 C7.75 92.99, 0 85.24, 0 69.74 C0 56.78, 0 43.82, 0 23.25 C0 7.75, 7.75 0, 23.25 0" stroke="none" stroke-width="0" fill="#fff"></path><path d="M23.25 0 C63.68 0, 104.11 0, 170.48 0 M23.25 0 C62.29 0, 101.33 0, 170.48 0 M170.48 0 C185.98 0, 193.73 7.75, 193.73 23.25 M170.48 0 C185.98 0, 193.73 7.75, 193.73 23.25 M193.73 23.25 C193.73 37.57, 193.73 51.9, 193.73 69.74 M193.73 23.25 C193.73 36.73, 193.73 50.21, 193.73 69.74 M193.73 69.74 C193.73 85.24, 185.98 92.99, 170.48 92.99 M193.73 69.74 C193.73 85.24, 185.98 92.99, 170.48 92.99 M170.48 92.99 C124.18 92.99, 77.88 92.99, 23.25 92.99 M170.48 92.99 C111.78 92.99, 53.08 92.99, 23.25 92.99 M23.25 92.99 C7.75 92.99, 0 85.24, 0 69.74 M23.25 92.99 C7.75 92.99, 0 85.24, 0 69.74 M0 69.74 C0 53.33, 0 36.91, 0 23.25 M0 69.74 C0 58.18, 0 46.62, 0 23.25 M0 23.25 C0 7.75, 7.75 0, 23.25 0 M0 23.25 C0 7.75, 7.75 0, 23.25 0" stroke="#1e1e1e" stroke-width="2" fill="none"></path></g><g transform="translate(758.5176072552304 406.54117635102193) rotate(0 87.1103515625 16.09999999999991)"><text x="87.1103515625" y="25.760546874999996" font-family="Helvetica, Segoe UI Emoji" font-size="28px" fill="#1e1e1e" text-anchor="middle" style="white-space: pre;" direction="ltr" dominant-baseline="alphabetic">CONTRACTS</text></g><g stroke-linecap="round" transform="translate(117.56791841744871 27.37322514754942) rotate(0 96.86612573774346 46.49574035411683)"><path d="M23.25 0 C70.37 0, 117.5 0, 170.48 0 C185.98 0, 193.73 7.75, 193.73 23.25 C193.73 39.26, 193.73 55.28, 193.73 69.74 C193.73 85.24, 185.98 92.99, 170.48 92.99 C129.12 92.99, 87.75 92.99, 23.25 92.99 C7.75 92.99, 0 85.24, 0 69.74 C0 56.07, 0 42.39, 0 23.25 C0 7.75, 7.75 0, 23.25 0" stroke="none" stroke-width="0" fill="#fff"></path><path d="M23.25 0 C77.59 0, 131.94 0, 170.48 0 M23.25 0 C57.19 0, 91.12 0, 170.48 0 M170.48 0 C185.98 0, 193.73 7.75, 193.73 23.25 M170.48 0 C185.98 0, 193.73 7.75, 193.73 23.25 M193.73 23.25 C193.73 36.37, 193.73 49.5, 193.73 69.74 M193.73 23.25 C193.73 35.77, 193.73 48.28, 193.73 69.74 M193.73 69.74 C193.73 85.24, 185.98 92.99, 170.48 92.99 M193.73 69.74 C193.73 85.24, 185.98 92.99, 170.48 92.99 M170.48 92.99 C131.39 92.99, 92.3 92.99, 23.25 92.99 M170.48 92.99 C121.51 92.99, 72.53 92.99, 23.25 92.99 M23.25 92.99 C7.75 92.99, 0 85.24, 0 69.74 M23.25 92.99 C7.75 92.99, 0 85.24, 0 69.74 M0 69.74 C0 55.75, 0 41.75, 0 23.25 M0 69.74 C0 56.44, 0 43.15, 0 23.25 M0 23.25 C0 7.75, 7.75 0, 23.25 0 M0 23.25 C0 7.75, 7.75 0, 23.25 0" stroke="#1e1e1e" stroke-width="2" fill="none"></path></g><g transform="translate(128.08248165519217 57.768965501666116) rotate(0 86.3515625 16.09999999999991)"><text x="86.3515625" y="25.760546874999996" font-family="Helvetica, Segoe UI Emoji" font-size="28px" fill="#1e1e1e" text-anchor="middle" style="white-space: pre;" direction="ltr" dominant-baseline="alphabetic">SCHEDULER</text></g><g stroke-linecap="round" transform="translate(684.3287702111156 27.37322514754942) rotate(0 96.86612573774346 46.49574035411683)"><path d="M23.25 0 C62.84 0, 102.42 0, 170.48 0 C185.98 0, 193.73 7.75, 193.73 23.25 C193.73 38.59, 193.73 53.94, 193.73 69.74 C193.73 85.24, 185.98 92.99, 170.48 92.99 C129.95 92.99, 89.41 92.99, 23.25 92.99 C7.75 92.99, 0 85.24, 0 69.74 C0 54.37, 0 38.99, 0 23.25 C0 7.75, 7.75 0, 23.25 0" stroke="none" stroke-width="0" fill="#fff"></path><path d="M23.25 0 C81.6 0, 139.96 0, 170.48 0 M23.25 0 C62.6 0, 101.94 0, 170.48 0 M170.48 0 C185.98 0, 193.73 7.75, 193.73 23.25 M170.48 0 C185.98 0, 193.73 7.75, 193.73 23.25 M193.73 23.25 C193.73 40.28, 193.73 57.3, 193.73 69.74 M193.73 23.25 C193.73 33.42, 193.73 43.59, 193.73 69.74 M193.73 69.74 C193.73 85.24, 185.98 92.99, 170.48 92.99 M193.73 69.74 C193.73 85.24, 185.98 92.99, 170.48 92.99 M170.48 92.99 C116.62 92.99, 62.75 92.99, 23.25 92.99 M170.48 92.99 C123.56 92.99, 76.64 92.99, 23.25 92.99 M23.25 92.99 C7.75 92.99, 0 85.24, 0 69.74 M23.25 92.99 C7.75 92.99, 0 85.24, 0 69.74 M0 69.74 C0 52.68, 0 35.61, 0 23.25 M0 69.74 C0 51.84, 0 33.94, 0 23.25 M0 23.25 C0 7.75, 7.75 0, 23.25 0 M0 23.25 C0 7.75, 7.75 0, 23.25 0" stroke="#1e1e1e" stroke-width="2" fill="none"></path></g><g transform="translate(705.7398178238591 41.66896550166621) rotate(0 75.455078125 32.200000000000045)"><text x="75.455078125" y="25.760546874999996" font-family="Helvetica, Segoe UI Emoji" font-size="28px" fill="#1e1e1e" text-anchor="middle" style="white-space: pre;" direction="ltr" dominant-baseline="alphabetic">DATA </text><text x="75.455078125" y="57.96054687499999" font-family="Helvetica, Segoe UI Emoji" font-size="28px" fill="#1e1e1e" text-anchor="middle" style="white-space: pre;" direction="ltr" dominant-baseline="alphabetic">PROFILING</text></g><g stroke-linecap="round" transform="translate(688.203415240625 513.5671398100872) rotate(0 96.86612573774346 30.99716023607789)"><path d="M15.5 0 C59.7 0, 103.9 0, 178.23 0 C188.57 0, 193.73 5.17, 193.73 15.5 C193.73 23.6, 193.73 31.7, 193.73 46.5 C193.73 56.83, 188.57 61.99, 178.23 61.99 C114.14 61.99, 50.06 61.99, 15.5 61.99 C5.17 61.99, 0 56.83, 0 46.5 C0 36.67, 0 26.84, 0 15.5 C0 5.17, 5.17 0, 15.5 0" stroke="none" stroke-width="0" fill="#fff"></path><path d="M15.5 0 C54.62 0, 93.74 0, 178.23 0 M15.5 0 C67.31 0, 119.13 0, 178.23 0 M178.23 0 C188.57 0, 193.73 5.17, 193.73 15.5 M178.23 0 C188.57 0, 193.73 5.17, 193.73 15.5 M193.73 15.5 C193.73 22.9, 193.73 30.3, 193.73 46.5 M193.73 15.5 C193.73 23.58, 193.73 31.67, 193.73 46.5 M193.73 46.5 C193.73 56.83, 188.57 61.99, 178.23 61.99 M193.73 46.5 C193.73 56.83, 188.57 61.99, 178.23 61.99 M178.23 61.99 C124.93 61.99, 71.62 61.99, 15.5 61.99 M178.23 61.99 C113.65 61.99, 49.07 61.99, 15.5 61.99 M15.5 61.99 C5.17 61.99, 0 56.83, 0 46.5 M15.5 61.99 C5.17 61.99, 0 56.83, 0 46.5 M0 46.5 C0 37.31, 0 28.12, 0 15.5 M0 46.5 C0 35.17, 0 23.84, 0 15.5 M0 15.5 C0 5.17, 5.17 0, 15.5 0 M0 15.5 C0 5.17, 5.17 0, 15.5 0" stroke="#1e1e1e" stroke-width="2" fill="none"></path></g><g transform="translate(696.3869237908684 528.4643000461651) rotate(0 88.6826171875 16.09999999999991)"><text x="88.6826171875" y="25.760546874999996" font-family="Helvetica, Segoe UI Emoji" font-size="28px" fill="#1e1e1e" text-anchor="middle" style="white-space: pre;" direction="ltr" dominant-baseline="alphabetic">DASHBOARD</text></g><g stroke-linecap="round" transform="translate(104.9439833289207 517.4417848395974) rotate(0 96.86612573774346 27.311967544264462)"><path d="M13.66 0 C70.12 0, 126.59 0, 180.08 0 C189.18 0, 193.73 4.55, 193.73 13.66 C193.73 24.37, 193.73 35.08, 193.73 40.97 C193.73 50.07, 189.18 54.62, 180.08 54.62 C128.12 54.62, 76.16 54.62, 13.66 54.62 C4.55 54.62, 0 50.07, 0 40.97 C0 34.14, 0 27.31, 0 13.66 C0 4.55, 4.55 0, 13.66 0" stroke="none" stroke-width="0" fill="#fff"></path><path d="M13.66 0 C50.53 0, 87.4 0, 180.08 0 M13.66 0 C69.96 0, 126.26 0, 180.08 0 M180.08 0 C189.18 0, 193.73 4.55, 193.73 13.66 M180.08 0 C189.18 0, 193.73 4.55, 193.73 13.66 M193.73 13.66 C193.73 21.8, 193.73 29.95, 193.73 40.97 M193.73 13.66 C193.73 23.43, 193.73 33.2, 193.73 40.97 M193.73 40.97 C193.73 50.07, 189.18 54.62, 180.08 54.62 M193.73 40.97 C193.73 50.07, 189.18 54.62, 180.08 54.62 M180.08 54.62 C114.08 54.62, 48.07 54.62, 13.66 54.62 M180.08 54.62 C137.14 54.62, 94.2 54.62, 13.66 54.62 M13.66 54.62 C4.55 54.62, 0 50.07, 0 40.97 M13.66 54.62 C4.55 54.62, 0 50.07, 0 40.97 M0 40.97 C0 32.09, 0 23.2, 0 13.66 M0 40.97 C0 33.78, 0 26.58, 0 13.66 M0 13.66 C0 4.55, 4.55 0, 13.66 0 M0 13.66 C0 4.55, 4.55 0, 13.66 0" stroke="#1e1e1e" stroke-width="2" fill="none"></path></g><g transform="translate(119.62163250416415 528.653752383862) rotate(0 82.1884765625 16.09999999999991)"><text x="82.1884765625" y="25.760546874999996" font-family="Helvetica, Segoe UI Emoji" font-size="28px" fill="#1e1e1e" text-anchor="middle" style="white-space: pre;" direction="ltr" dominant-baseline="alphabetic">CUSTOMIZE</text></g><g stroke-linecap="round" transform="translate(107.0066608141642 635.6184582396459) rotate(0 96.86612573774346 30.99716023607789)"><path d="M15.5 0 C68.28 0, 121.06 0, 178.23 0 C188.57 0, 193.73 5.17, 193.73 15.5 C193.73 25.42, 193.73 35.33, 193.73 46.5 C193.73 56.83, 188.57 61.99, 178.23 61.99 C116.13 61.99, 54.03 61.99, 15.5 61.99 C5.17 61.99, 0 56.83, 0 46.5 C0 35.85, 0 25.21, 0 15.5 C0 5.17, 5.17 0, 15.5 0" stroke="none" stroke-width="0" fill="#fff"></path><path d="M15.5 0 C66.7 0, 117.9 0, 178.23 0 M15.5 0 C62.06 0, 108.63 0, 178.23 0 M178.23 0 C188.57 0, 193.73 5.17, 193.73 15.5 M178.23 0 C188.57 0, 193.73 5.17, 193.73 15.5 M193.73 15.5 C193.73 24.63, 193.73 33.76, 193.73 46.5 M193.73 15.5 C193.73 26.2, 193.73 36.9, 193.73 46.5 M193.73 46.5 C193.73 56.83, 188.57 61.99, 178.23 61.99 M193.73 46.5 C193.73 56.83, 188.57 61.99, 178.23 61.99 M178.23 61.99 C114.75 61.99, 51.27 61.99, 15.5 61.99 M178.23 61.99 C124.76 61.99, 71.29 61.99, 15.5 61.99 M15.5 61.99 C5.17 61.99, 0 56.83, 0 46.5 M15.5 61.99 C5.17 61.99, 0 56.83, 0 46.5 M0 46.5 C0 35.46, 0 24.42, 0 15.5 M0 46.5 C0 35.76, 0 25.03, 0 15.5 M0 15.5 C0 5.17, 5.17 0, 15.5 0 M0 15.5 C0 5.17, 5.17 0, 15.5 0" stroke="#1e1e1e" stroke-width="2" fill="none"></path></g><g transform="translate(118.32102873940767 650.5156184757238) rotate(0 85.5517578125 16.09999999999991)"><text x="85.5517578125" y="25.760546874999996" font-family="Helvetica, Segoe UI Emoji" font-size="28px" fill="#1e1e1e" text-anchor="middle" style="white-space: pre;" direction="ltr" dominant-baseline="alphabetic">USER MGMT</text></g><g stroke-linecap="round" transform="translate(736.6364781094981 635.618458239645) rotate(0 96.86612573774346 30.99716023607789)"><path d="M15.5 0 C53.87 0, 92.24 0, 178.23 0 C188.57 0, 193.73 5.17, 193.73 15.5 C193.73 22.04, 193.73 28.58, 193.73 46.5 C193.73 56.83, 188.57 61.99, 178.23 61.99 C132.16 61.99, 86.09 61.99, 15.5 61.99 C5.17 61.99, 0 56.83, 0 46.5 C0 35.37, 0 24.24, 0 15.5 C0 5.17, 5.17 0, 15.5 0" stroke="none" stroke-width="0" fill="#fff"></path><path d="M15.5 0 C56.33 0, 97.17 0, 178.23 0 M15.5 0 C79.64 0, 143.78 0, 178.23 0 M178.23 0 C188.57 0, 193.73 5.17, 193.73 15.5 M178.23 0 C188.57 0, 193.73 5.17, 193.73 15.5 M193.73 15.5 C193.73 27.5, 193.73 39.49, 193.73 46.5 M193.73 15.5 C193.73 25.05, 193.73 34.6, 193.73 46.5 M193.73 46.5 C193.73 56.83, 188.57 61.99, 178.23 61.99 M193.73 46.5 C193.73 56.83, 188.57 61.99, 178.23 61.99 M178.23 61.99 C145.44 61.99, 112.64 61.99, 15.5 61.99 M178.23 61.99 C138.05 61.99, 97.86 61.99, 15.5 61.99 M15.5 61.99 C5.17 61.99, 0 56.83, 0 46.5 M15.5 61.99 C5.17 61.99, 0 56.83, 0 46.5 M0 46.5 C0 38.13, 0 29.76, 0 15.5 M0 46.5 C0 39.49, 0 32.49, 0 15.5 M0 15.5 C0 5.17, 5.17 0, 15.5 0 M0 15.5 C0 5.17, 5.17 0, 15.5 0" stroke="#1e1e1e" stroke-width="2" fill="none"></path></g><g transform="translate(785.5279944722415 650.5156184757229) rotate(0 47.974609375 16.09999999999991)"><text x="47.974609375" y="25.760546874999996" font-family="Helvetica, Segoe UI Emoji" font-size="28px" fill="#1e1e1e" text-anchor="middle" style="white-space: pre;" direction="ltr" dominant-baseline="alphabetic">TOKEN</text></g><g stroke-linecap="round" transform="translate(261.9924619945523 295.33914798048454) rotate(270 96.86612573774346 25.185192691813427)"><path d="M12.59 0 C78.35 0, 144.11 0, 181.14 0 C189.53 0, 193.73 4.2, 193.73 12.59 C193.73 21.78, 193.73 30.98, 193.73 37.78 C193.73 46.17, 189.53 50.37, 181.14 50.37 C121.43 50.37, 61.71 50.37, 12.59 50.37 C4.2 50.37, 0 46.17, 0 37.78 C0 29.45, 0 21.13, 0 12.59 C0 4.2, 4.2 0, 12.59 0" stroke="none" stroke-width="0" fill="#eaddd7"></path><path d="M12.59 0 C60.22 0, 107.84 0, 181.14 0 M12.59 0 C63.83 0, 115.06 0, 181.14 0 M181.14 0 C189.53 0, 193.73 4.2, 193.73 12.59 M181.14 0 C189.53 0, 193.73 4.2, 193.73 12.59 M193.73 12.59 C193.73 21.56, 193.73 30.53, 193.73 37.78 M193.73 12.59 C193.73 18.39, 193.73 24.18, 193.73 37.78 M193.73 37.78 C193.73 46.17, 189.53 50.37, 181.14 50.37 M193.73 37.78 C193.73 46.17, 189.53 50.37, 181.14 50.37 M181.14 50.37 C126.63 50.37, 72.12 50.37, 12.59 50.37 M181.14 50.37 C131.73 50.37, 82.32 50.37, 12.59 50.37 M12.59 50.37 C4.2 50.37, 0 46.17, 0 37.78 M12.59 50.37 C4.2 50.37, 0 46.17, 0 37.78 M0 37.78 C0 29.44, 0 21.1, 0 12.59 M0 37.78 C0 31.67, 0 25.56, 0 12.59 M0 12.59 C0 4.2, 4.2 0, 12.59 0 M0 12.59 C0 4.2, 4.2 0, 12.59 0" stroke="#1e1e1e" stroke-width="2" fill="none"></path></g><g transform="translate(299.73456429479575 304.42434067229806) rotate(270 59.1240234375 16.09999999999991)"><text x="59.1240234375" y="25.760546874999996" font-family="Helvetica, Segoe UI Emoji" font-size="28px" fill="#1e1e1e" text-anchor="middle" style="white-space: pre;" direction="ltr" dominant-baseline="alphabetic">BROKER</text></g><g stroke-linecap="round" transform="translate(589.3999669881268 297.2764704952392) rotate(270 96.86612573774346 25.185192691813427)"><path d="M12.59 0 C73.52 0, 134.46 0, 181.14 0 C189.53 0, 193.73 4.2, 193.73 12.59 C193.73 18.43, 193.73 24.28, 193.73 37.78 C193.73 46.17, 189.53 50.37, 181.14 50.37 C125.31 50.37, 69.48 50.37, 12.59 50.37 C4.2 50.37, 0 46.17, 0 37.78 C0 31.78, 0 25.77, 0 12.59 C0 4.2, 4.2 0, 12.59 0" stroke="none" stroke-width="0" fill="#eaddd7"></path><path d="M12.59 0 C55.8 0, 99.01 0, 181.14 0 M12.59 0 C57.37 0, 102.16 0, 181.14 0 M181.14 0 C189.53 0, 193.73 4.2, 193.73 12.59 M181.14 0 C189.53 0, 193.73 4.2, 193.73 12.59 M193.73 12.59 C193.73 22.21, 193.73 31.83, 193.73 37.78 M193.73 12.59 C193.73 17.81, 193.73 23.02, 193.73 37.78 M193.73 37.78 C193.73 46.17, 189.53 50.37, 181.14 50.37 M193.73 37.78 C193.73 46.17, 189.53 50.37, 181.14 50.37 M181.14 50.37 C113.99 50.37, 46.84 50.37, 12.59 50.37 M181.14 50.37 C122.18 50.37, 63.22 50.37, 12.59 50.37 M12.59 50.37 C4.2 50.37, 0 46.17, 0 37.78 M12.59 50.37 C4.2 50.37, 0 46.17, 0 37.78 M0 37.78 C0 29.77, 0 21.77, 0 12.59 M0 37.78 C0 28.76, 0 19.73, 0 12.59 M0 12.59 C0 4.2, 4.2 0, 12.59 0 M0 12.59 C0 4.2, 4.2 0, 12.59 0" stroke="#1e1e1e" stroke-width="2" fill="none"></path></g><g transform="translate(627.1420692883703 306.3616631870527) rotate(270 59.1240234375 16.09999999999991)"><text x="59.1240234375" y="25.760546874999996" font-family="Helvetica, Segoe UI Emoji" font-size="28px" fill="#1e1e1e" text-anchor="middle" style="white-space: pre;" direction="ltr" dominant-baseline="alphabetic">BROKER</text></g><g stroke-linecap="round"><g transform="translate(15.952502620686573 425.139756469061) rotate(0 43.58975658198415 0)"><path d="M0 0 C14.53 0, 72.65 0, 87.18 0 M0 0 C14.53 0, 72.65 0, 87.18 0" stroke="#1e1e1e" stroke-width="2" fill="none"></path></g><g transform="translate(15.952502620686573 425.139756469061) rotate(0 43.58975658198415 0)"><path d="M63.69 8.55 C68.94 6.64, 74.2 4.73, 87.18 0 M63.69 8.55 C70.94 5.91, 78.2 3.27, 87.18 0" stroke="#1e1e1e" stroke-width="2" fill="none"></path></g><g transform="translate(15.952502620686573 425.139756469061) rotate(0 43.58975658198415 0)"><path d="M63.69 -8.55 C68.94 -6.64, 74.2 -4.73, 87.18 0 M63.69 -8.55 C70.94 -5.91, 78.2 -3.27, 87.18 0" stroke="#1e1e1e" stroke-width="2" fill="none"></path></g></g><mask></mask><g transform="translate(10 339.8975658198465) rotate(0 31.1376953125 32.200000000000045)"><text x="31.1376953125" y="25.760546874999996" font-family="Helvetica, Segoe UI Emoji" font-size="28px" fill="#1e1e1e" text-anchor="middle" style="white-space: pre;" direction="ltr" dominant-baseline="alphabetic">Data</text><text x="31.1376953125" y="57.96054687499999" font-family="Helvetica, Segoe UI Emoji" font-size="28px" fill="#1e1e1e" text-anchor="middle" style="white-space: pre;" direction="ltr" dominant-baseline="alphabetic">Input</text></g><g stroke-linecap="round" transform="translate(892.1591297390669 132.04366212969626) rotate(0 37.139282614901276 7.697370794237486)"><path d="M74.28 7.7 C74.28 8.14, 74.09 8.6, 73.71 9.03 C73.34 9.47, 72.77 9.91, 72.04 10.33 C71.3 10.75, 70.38 11.16, 69.3 11.55 C68.23 11.93, 66.97 12.3, 65.59 12.65 C64.21 12.99, 62.66 13.31, 61.01 13.59 C59.37 13.88, 57.57 14.14, 55.71 14.36 C53.85 14.59, 51.86 14.78, 49.84 14.93 C47.82 15.08, 45.71 15.2, 43.59 15.28 C41.47 15.36, 39.29 15.39, 37.14 15.39 C34.99 15.39, 32.81 15.36, 30.69 15.28 C28.57 15.2, 26.46 15.08, 24.44 14.93 C22.42 14.78, 20.43 14.59, 18.57 14.36 C16.71 14.14, 14.91 13.88, 13.27 13.59 C11.62 13.31, 10.07 12.99, 8.69 12.65 C7.31 12.3, 6.05 11.93, 4.98 11.55 C3.9 11.16, 2.98 10.75, 2.24 10.33 C1.5 9.91, 0.94 9.47, 0.56 9.03 C0.19 8.6, 0 8.14, 0 7.7 C0 7.25, 0.19 6.8, 0.56 6.36 C0.94 5.92, 1.5 5.48, 2.24 5.06 C2.98 4.65, 3.9 4.23, 4.98 3.85 C6.05 3.46, 7.31 3.09, 8.69 2.75 C10.07 2.41, 11.62 2.09, 13.27 1.8 C14.91 1.51, 16.71 1.25, 18.57 1.03 C20.43 0.81, 22.42 0.62, 24.44 0.46 C26.46 0.31, 28.57 0.19, 30.69 0.12 C32.81 0.04, 34.99 0, 37.14 0 C39.29 0, 41.47 0.04, 43.59 0.12 C45.71 0.19, 47.82 0.31, 49.84 0.46 C51.86 0.62, 53.85 0.81, 55.71 1.03 C57.57 1.25, 59.37 1.51, 61.01 1.8 C62.66 2.09, 64.21 2.41, 65.59 2.75 C66.97 3.09, 68.23 3.46, 69.3 3.85 C70.38 4.23, 71.3 4.65, 72.04 5.06 C72.77 5.48, 73.34 5.92, 73.71 6.36 C74.09 6.8, 74.18 7.47, 74.28 7.7 C74.37 7.92, 74.37 7.47, 74.28 7.7" stroke="none" stroke-width="0" fill="#ffffff"></path><path d="M74.28 7.7 C74.28 8.14, 74.09 8.6, 73.71 9.03 C73.34 9.47, 72.77 9.91, 72.04 10.33 C71.3 10.75, 70.38 11.16, 69.3 11.55 C68.23 11.93, 66.97 12.3, 65.59 12.65 C64.21 12.99, 62.66 13.31, 61.01 13.59 C59.37 13.88, 57.57 14.14, 55.71 14.36 C53.85 14.59, 51.86 14.78, 49.84 14.93 C47.82 15.08, 45.71 15.2, 43.59 15.28 C41.47 15.36, 39.29 15.39, 37.14 15.39 C34.99 15.39, 32.81 15.36, 30.69 15.28 C28.57 15.2, 26.46 15.08, 24.44 14.93 C22.42 14.78, 20.43 14.59, 18.57 14.36 C16.71 14.14, 14.91 13.88, 13.27 13.59 C11.62 13.31, 10.07 12.99, 8.69 12.65 C7.31 12.3, 6.05 11.93, 4.98 11.55 C3.9 11.16, 2.98 10.75, 2.24 10.33 C1.5 9.91, 0.94 9.47, 0.56 9.03 C0.19 8.6, 0 8.14, 0 7.7 C0 7.25, 0.19 6.8, 0.56 6.36 C0.94 5.92, 1.5 5.48, 2.24 5.06 C2.98 4.65, 3.9 4.23, 4.98 3.85 C6.05 3.46, 7.31 3.09, 8.69 2.75 C10.07 2.41, 11.62 2.09, 13.27 1.8 C14.91 1.51, 16.71 1.25, 18.57 1.03 C20.43 0.81, 22.42 0.62, 24.44 0.46 C26.46 0.31, 28.57 0.19, 30.69 0.12 C32.81 0.04, 34.99 0, 37.14 0 C39.29 0, 41.47 0.04, 43.59 0.12 C45.71 0.19, 47.82 0.31, 49.84 0.46 C51.86 0.62, 53.85 0.81, 55.71 1.03 C57.57 1.25, 59.37 1.51, 61.01 1.8 C62.66 2.09, 64.21 2.41, 65.59 2.75 C66.97 3.09, 68.23 3.46, 69.3 3.85 C70.38 4.23, 71.3 4.65, 72.04 5.06 C72.77 5.48, 73.34 5.92, 73.71 6.36 C74.09 6.8, 74.18 7.47, 74.28 7.7 C74.37 7.92, 74.37 7.47, 74.28 7.7" stroke="#000000" stroke-width="2" fill="none"></path></g><g stroke-linecap="round" transform="translate(892.0176292299175 139.6191369285243) rotate(0 37.32349701602743 1.6569622351096314)"><path d="M0.83 0 C25.05 0, 49.27 0, 73.82 0 C74.37 0, 74.65 0.28, 74.65 0.83 C74.65 1.36, 74.65 1.89, 74.65 2.49 C74.65 3.04, 74.37 3.31, 73.82 3.31 C46.9 3.31, 19.98 3.31, 0.83 3.31 C0.28 3.31, 0 3.04, 0 2.49 C0 1.94, 0 1.4, 0 0.83 C0 0.28, 0.28 0, 0.83 0" stroke="none" stroke-width="0" fill="#ffffff"></path><path d="M0.83 0 C26.47 0, 52.11 0, 73.82 0 M0.83 0 C16.85 0, 32.87 0, 73.82 0 M73.82 0 C74.37 0, 74.65 0.28, 74.65 0.83 M73.82 0 C74.37 0, 74.65 0.28, 74.65 0.83 M74.65 0.83 C74.65 1.3, 74.65 1.78, 74.65 2.49 M74.65 0.83 C74.65 1.23, 74.65 1.64, 74.65 2.49 M74.65 2.49 C74.65 3.04, 74.37 3.31, 73.82 3.31 M74.65 2.49 C74.65 3.04, 74.37 3.31, 73.82 3.31 M73.82 3.31 C45.95 3.31, 18.09 3.31, 0.83 3.31 M73.82 3.31 C51.57 3.31, 29.32 3.31, 0.83 3.31 M0.83 3.31 C0.28 3.31, 0 3.04, 0 2.49 M0.83 3.31 C0.28 3.31, 0 3.04, 0 2.49 M0 2.49 C0 1.97, 0 1.46, 0 0.83 M0 2.49 C0 2.1, 0 1.72, 0 0.83 M0 0.83 C0 0.28, 0.28 0, 0.83 0 M0 0.83 C0 0.28, 0.28 0, 0.83 0" stroke="#000000" stroke-width="2" fill="none"></path></g><g stroke-linecap="round" transform="translate(892.2612380532146 136.19661111750838) rotate(0 37.139282614901276 7.697370794237486)"><path d="M74.28 7.7 C74.28 8.14, 74.09 8.6, 73.71 9.03 C73.34 9.47, 72.77 9.91, 72.04 10.33 C71.3 10.75, 70.38 11.16, 69.3 11.55 C68.23 11.93, 66.97 12.3, 65.59 12.65 C64.21 12.99, 62.66 13.31, 61.01 13.59 C59.37 13.88, 57.57 14.14, 55.71 14.36 C53.85 14.59, 51.86 14.78, 49.84 14.93 C47.82 15.08, 45.71 15.2, 43.59 15.28 C41.47 15.36, 39.29 15.39, 37.14 15.39 C34.99 15.39, 32.81 15.36, 30.69 15.28 C28.57 15.2, 26.46 15.08, 24.44 14.93 C22.42 14.78, 20.43 14.59, 18.57 14.36 C16.71 14.14, 14.91 13.88, 13.27 13.59 C11.62 13.31, 10.07 12.99, 8.69 12.65 C7.31 12.3, 6.05 11.93, 4.98 11.55 C3.9 11.16, 2.98 10.75, 2.24 10.33 C1.5 9.91, 0.94 9.47, 0.56 9.03 C0.19 8.6, 0 8.14, 0 7.7 C0 7.25, 0.19 6.8, 0.56 6.36 C0.94 5.92, 1.5 5.48, 2.24 5.06 C2.98 4.65, 3.9 4.23, 4.98 3.85 C6.05 3.46, 7.31 3.09, 8.69 2.75 C10.07 2.41, 11.62 2.09, 13.27 1.8 C14.91 1.51, 16.71 1.25, 18.57 1.03 C20.43 0.81, 22.42 0.62, 24.44 0.46 C26.46 0.31, 28.57 0.19, 30.69 0.12 C32.81 0.04, 34.99 0, 37.14 0 C39.29 0, 41.47 0.04, 43.59 0.12 C45.71 0.19, 47.82 0.31, 49.84 0.46 C51.86 0.62, 53.85 0.81, 55.71 1.03 C57.57 1.25, 59.37 1.51, 61.01 1.8 C62.66 2.09, 64.21 2.41, 65.59 2.75 C66.97 3.09, 68.23 3.46, 69.3 3.85 C70.38 4.23, 71.3 4.65, 72.04 5.06 C72.77 5.48, 73.34 5.92, 73.71 6.36 C74.09 6.8, 74.18 7.47, 74.28 7.7 C74.37 7.92, 74.37 7.47, 74.28 7.7" stroke="none" stroke-width="0" fill="#ffffff"></path><path d="M74.28 7.7 C74.28 8.14, 74.09 8.6, 73.71 9.03 C73.34 9.47, 72.77 9.91, 72.04 10.33 C71.3 10.75, 70.38 11.16, 69.3 11.55 C68.23 11.93, 66.97 12.3, 65.59 12.65 C64.21 12.99, 62.66 13.31, 61.01 13.59 C59.37 13.88, 57.57 14.14, 55.71 14.36 C53.85 14.59, 51.86 14.78, 49.84 14.93 C47.82 15.08, 45.71 15.2, 43.59 15.28 C41.47 15.36, 39.29 15.39, 37.14 15.39 C34.99 15.39, 32.81 15.36, 30.69 15.28 C28.57 15.2, 26.46 15.08, 24.44 14.93 C22.42 14.78, 20.43 14.59, 18.57 14.36 C16.71 14.14, 14.91 13.88, 13.27 13.59 C11.62 13.31, 10.07 12.99, 8.69 12.65 C7.31 12.3, 6.05 11.93, 4.98 11.55 C3.9 11.16, 2.98 10.75, 2.24 10.33 C1.5 9.91, 0.94 9.47, 0.56 9.03 C0.19 8.6, 0 8.14, 0 7.7 C0 7.25, 0.19 6.8, 0.56 6.36 C0.94 5.92, 1.5 5.48, 2.24 5.06 C2.98 4.65, 3.9 4.23, 4.98 3.85 C6.05 3.46, 7.31 3.09, 8.69 2.75 C10.07 2.41, 11.62 2.09, 13.27 1.8 C14.91 1.51, 16.71 1.25, 18.57 1.03 C20.43 0.81, 22.42 0.62, 24.44 0.46 C26.46 0.31, 28.57 0.19, 30.69 0.12 C32.81 0.04, 34.99 0, 37.14 0 C39.29 0, 41.47 0.04, 43.59 0.12 C45.71 0.19, 47.82 0.31, 49.84 0.46 C51.86 0.62, 53.85 0.81, 55.71 1.03 C57.57 1.25, 59.37 1.51, 61.01 1.8 C62.66 2.09, 64.21 2.41, 65.59 2.75 C66.97 3.09, 68.23 3.46, 69.3 3.85 C70.38 4.23, 71.3 4.65, 72.04 5.06 C72.77 5.48, 73.34 5.92, 73.71 6.36 C74.09 6.8, 74.18 7.47, 74.28 7.7 C74.37 7.92, 74.37 7.47, 74.28 7.7" stroke="#000000" stroke-width="2" fill="none"></path></g><g stroke-linecap="round" transform="translate(892.2612380532146 130.53246673970625) rotate(0 37.139282614901276 7.697370794237486)"><path d="M74.28 7.7 C74.28 8.14, 74.09 8.6, 73.71 9.03 C73.34 9.47, 72.77 9.91, 72.04 10.33 C71.3 10.75, 70.38 11.16, 69.3 11.55 C68.23 11.93, 66.97 12.3, 65.59 12.65 C64.21 12.99, 62.66 13.31, 61.01 13.59 C59.37 13.88, 57.57 14.14, 55.71 14.36 C53.85 14.59, 51.86 14.78, 49.84 14.93 C47.82 15.08, 45.71 15.2, 43.59 15.28 C41.47 15.36, 39.29 15.39, 37.14 15.39 C34.99 15.39, 32.81 15.36, 30.69 15.28 C28.57 15.2, 26.46 15.08, 24.44 14.93 C22.42 14.78, 20.43 14.59, 18.57 14.36 C16.71 14.14, 14.91 13.88, 13.27 13.59 C11.62 13.31, 10.07 12.99, 8.69 12.65 C7.31 12.3, 6.05 11.93, 4.98 11.55 C3.9 11.16, 2.98 10.75, 2.24 10.33 C1.5 9.91, 0.94 9.47, 0.56 9.03 C0.19 8.6, 0 8.14, 0 7.7 C0 7.25, 0.19 6.8, 0.56 6.36 C0.94 5.92, 1.5 5.48, 2.24 5.06 C2.98 4.65, 3.9 4.23, 4.98 3.85 C6.05 3.46, 7.31 3.09, 8.69 2.75 C10.07 2.41, 11.62 2.09, 13.27 1.8 C14.91 1.51, 16.71 1.25, 18.57 1.03 C20.43 0.81, 22.42 0.62, 24.44 0.46 C26.46 0.31, 28.57 0.19, 30.69 0.12 C32.81 0.04, 34.99 0, 37.14 0 C39.29 0, 41.47 0.04, 43.59 0.12 C45.71 0.19, 47.82 0.31, 49.84 0.46 C51.86 0.62, 53.85 0.81, 55.71 1.03 C57.57 1.25, 59.37 1.51, 61.01 1.8 C62.66 2.09, 64.21 2.41, 65.59 2.75 C66.97 3.09, 68.23 3.46, 69.3 3.85 C70.38 4.23, 71.3 4.65, 72.04 5.06 C72.77 5.48, 73.34 5.92, 73.71 6.36 C74.09 6.8, 74.18 7.47, 74.28 7.7 C74.37 7.92, 74.37 7.47, 74.28 7.7" stroke="none" stroke-width="0" fill="#ffffff"></path><path d="M74.28 7.7 C74.28 8.14, 74.09 8.6, 73.71 9.03 C73.34 9.47, 72.77 9.91, 72.04 10.33 C71.3 10.75, 70.38 11.16, 69.3 11.55 C68.23 11.93, 66.97 12.3, 65.59 12.65 C64.21 12.99, 62.66 13.31, 61.01 13.59 C59.37 13.88, 57.57 14.14, 55.71 14.36 C53.85 14.59, 51.86 14.78, 49.84 14.93 C47.82 15.08, 45.71 15.2, 43.59 15.28 C41.47 15.36, 39.29 15.39, 37.14 15.39 C34.99 15.39, 32.81 15.36, 30.69 15.28 C28.57 15.2, 26.46 15.08, 24.44 14.93 C22.42 14.78, 20.43 14.59, 18.57 14.36 C16.71 14.14, 14.91 13.88, 13.27 13.59 C11.62 13.31, 10.07 12.99, 8.69 12.65 C7.31 12.3, 6.05 11.93, 4.98 11.55 C3.9 11.16, 2.98 10.75, 2.24 10.33 C1.5 9.91, 0.94 9.47, 0.56 9.03 C0.19 8.6, 0 8.14, 0 7.7 C0 7.25, 0.19 6.8, 0.56 6.36 C0.94 5.92, 1.5 5.48, 2.24 5.06 C2.98 4.65, 3.9 4.23, 4.98 3.85 C6.05 3.46, 7.31 3.09, 8.69 2.75 C10.07 2.41, 11.62 2.09, 13.27 1.8 C14.91 1.51, 16.71 1.25, 18.57 1.03 C20.43 0.81, 22.42 0.62, 24.44 0.46 C26.46 0.31, 28.57 0.19, 30.69 0.12 C32.81 0.04, 34.99 0, 37.14 0 C39.29 0, 41.47 0.04, 43.59 0.12 C45.71 0.19, 47.82 0.31, 49.84 0.46 C51.86 0.62, 53.85 0.81, 55.71 1.03 C57.57 1.25, 59.37 1.51, 61.01 1.8 C62.66 2.09, 64.21 2.41, 65.59 2.75 C66.97 3.09, 68.23 3.46, 69.3 3.85 C70.38 4.23, 71.3 4.65, 72.04 5.06 C72.77 5.48, 73.34 5.92, 73.71 6.36 C74.09 6.8, 74.18 7.47, 74.28 7.7 C74.37 7.92, 74.37 7.47, 74.28 7.7" stroke="#ffffff" stroke-width="2" fill="none"></path></g><g stroke-linecap="round" transform="translate(892.1591297390669 113.53175879326363) rotate(0 37.139282614901276 7.697370794237486)"><path d="M74.28 7.7 C74.28 8.14, 74.09 8.6, 73.71 9.03 C73.34 9.47, 72.77 9.91, 72.04 10.33 C71.3 10.75, 70.38 11.16, 69.3 11.55 C68.23 11.93, 66.97 12.3, 65.59 12.65 C64.21 12.99, 62.66 13.31, 61.01 13.59 C59.37 13.88, 57.57 14.14, 55.71 14.36 C53.85 14.59, 51.86 14.78, 49.84 14.93 C47.82 15.08, 45.71 15.2, 43.59 15.28 C41.47 15.36, 39.29 15.39, 37.14 15.39 C34.99 15.39, 32.81 15.36, 30.69 15.28 C28.57 15.2, 26.46 15.08, 24.44 14.93 C22.42 14.78, 20.43 14.59, 18.57 14.36 C16.71 14.14, 14.91 13.88, 13.27 13.59 C11.62 13.31, 10.07 12.99, 8.69 12.65 C7.31 12.3, 6.05 11.93, 4.98 11.55 C3.9 11.16, 2.98 10.75, 2.24 10.33 C1.5 9.91, 0.94 9.47, 0.56 9.03 C0.19 8.6, 0 8.14, 0 7.7 C0 7.25, 0.19 6.8, 0.56 6.36 C0.94 5.92, 1.5 5.48, 2.24 5.06 C2.98 4.65, 3.9 4.23, 4.98 3.85 C6.05 3.46, 7.31 3.09, 8.69 2.75 C10.07 2.41, 11.62 2.09, 13.27 1.8 C14.91 1.51, 16.71 1.25, 18.57 1.03 C20.43 0.81, 22.42 0.62, 24.44 0.46 C26.46 0.31, 28.57 0.19, 30.69 0.12 C32.81 0.04, 34.99 0, 37.14 0 C39.29 0, 41.47 0.04, 43.59 0.12 C45.71 0.19, 47.82 0.31, 49.84 0.46 C51.86 0.62, 53.85 0.81, 55.71 1.03 C57.57 1.25, 59.37 1.51, 61.01 1.8 C62.66 2.09, 64.21 2.41, 65.59 2.75 C66.97 3.09, 68.23 3.46, 69.3 3.85 C70.38 4.23, 71.3 4.65, 72.04 5.06 C72.77 5.48, 73.34 5.92, 73.71 6.36 C74.09 6.8, 74.18 7.47, 74.28 7.7 C74.37 7.92, 74.37 7.47, 74.28 7.7" stroke="none" stroke-width="0" fill="#ffffff"></path><path d="M74.28 7.7 C74.28 8.14, 74.09 8.6, 73.71 9.03 C73.34 9.47, 72.77 9.91, 72.04 10.33 C71.3 10.75, 70.38 11.16, 69.3 11.55 C68.23 11.93, 66.97 12.3, 65.59 12.65 C64.21 12.99, 62.66 13.31, 61.01 13.59 C59.37 13.88, 57.57 14.14, 55.71 14.36 C53.85 14.59, 51.86 14.78, 49.84 14.93 C47.82 15.08, 45.71 15.2, 43.59 15.28 C41.47 15.36, 39.29 15.39, 37.14 15.39 C34.99 15.39, 32.81 15.36, 30.69 15.28 C28.57 15.2, 26.46 15.08, 24.44 14.93 C22.42 14.78, 20.43 14.59, 18.57 14.36 C16.71 14.14, 14.91 13.88, 13.27 13.59 C11.62 13.31, 10.07 12.99, 8.69 12.65 C7.31 12.3, 6.05 11.93, 4.98 11.55 C3.9 11.16, 2.98 10.75, 2.24 10.33 C1.5 9.91, 0.94 9.47, 0.56 9.03 C0.19 8.6, 0 8.14, 0 7.7 C0 7.25, 0.19 6.8, 0.56 6.36 C0.94 5.92, 1.5 5.48, 2.24 5.06 C2.98 4.65, 3.9 4.23, 4.98 3.85 C6.05 3.46, 7.31 3.09, 8.69 2.75 C10.07 2.41, 11.62 2.09, 13.27 1.8 C14.91 1.51, 16.71 1.25, 18.57 1.03 C20.43 0.81, 22.42 0.62, 24.44 0.46 C26.46 0.31, 28.57 0.19, 30.69 0.12 C32.81 0.04, 34.99 0, 37.14 0 C39.29 0, 41.47 0.04, 43.59 0.12 C45.71 0.19, 47.82 0.31, 49.84 0.46 C51.86 0.62, 53.85 0.81, 55.71 1.03 C57.57 1.25, 59.37 1.51, 61.01 1.8 C62.66 2.09, 64.21 2.41, 65.59 2.75 C66.97 3.09, 68.23 3.46, 69.3 3.85 C70.38 4.23, 71.3 4.65, 72.04 5.06 C72.77 5.48, 73.34 5.92, 73.71 6.36 C74.09 6.8, 74.18 7.47, 74.28 7.7 C74.37 7.92, 74.37 7.47, 74.28 7.7" stroke="#000000" stroke-width="2" fill="none"></path></g><g stroke-linecap="round" transform="translate(892.0176292299175 121.10723359209123) rotate(0 37.32349701602743 1.6569622351096314)"><path d="M0.83 0 C24.36 0, 47.88 0, 73.82 0 C74.37 0, 74.65 0.28, 74.65 0.83 C74.65 1.41, 74.65 1.99, 74.65 2.49 C74.65 3.04, 74.37 3.31, 73.82 3.31 C47.97 3.31, 22.11 3.31, 0.83 3.31 C0.28 3.31, 0 3.04, 0 2.49 C0 2.1, 0 1.71, 0 0.83 C0 0.28, 0.28 0, 0.83 0" stroke="none" stroke-width="0" fill="#ffffff"></path><path d="M0.83 0 C25.73 0, 50.64 0, 73.82 0 M0.83 0 C28.86 0, 56.9 0, 73.82 0 M73.82 0 C74.37 0, 74.65 0.28, 74.65 0.83 M73.82 0 C74.37 0, 74.65 0.28, 74.65 0.83 M74.65 0.83 C74.65 1.44, 74.65 2.04, 74.65 2.49 M74.65 0.83 C74.65 1.41, 74.65 1.99, 74.65 2.49 M74.65 2.49 C74.65 3.04, 74.37 3.31, 73.82 3.31 M74.65 2.49 C74.65 3.04, 74.37 3.31, 73.82 3.31 M73.82 3.31 C49.61 3.31, 25.4 3.31, 0.83 3.31 M73.82 3.31 C50.3 3.31, 26.78 3.31, 0.83 3.31 M0.83 3.31 C0.28 3.31, 0 3.04, 0 2.49 M0.83 3.31 C0.28 3.31, 0 3.04, 0 2.49 M0 2.49 C0 1.96, 0 1.44, 0 0.83 M0 2.49 C0 1.94, 0 1.39, 0 0.83 M0 0.83 C0 0.28, 0.28 0, 0.83 0 M0 0.83 C0 0.28, 0.28 0, 0.83 0" stroke="#000000" stroke-width="2" fill="none"></path></g><g stroke-linecap="round" transform="translate(892.2612380532146 117.68470778107576) rotate(0 37.139282614901276 7.697370794237486)"><path d="M74.28 7.7 C74.28 8.14, 74.09 8.6, 73.71 9.03 C73.34 9.47, 72.77 9.91, 72.04 10.33 C71.3 10.75, 70.38 11.16, 69.3 11.55 C68.23 11.93, 66.97 12.3, 65.59 12.65 C64.21 12.99, 62.66 13.31, 61.01 13.59 C59.37 13.88, 57.57 14.14, 55.71 14.36 C53.85 14.59, 51.86 14.78, 49.84 14.93 C47.82 15.08, 45.71 15.2, 43.59 15.28 C41.47 15.36, 39.29 15.39, 37.14 15.39 C34.99 15.39, 32.81 15.36, 30.69 15.28 C28.57 15.2, 26.46 15.08, 24.44 14.93 C22.42 14.78, 20.43 14.59, 18.57 14.36 C16.71 14.14, 14.91 13.88, 13.27 13.59 C11.62 13.31, 10.07 12.99, 8.69 12.65 C7.31 12.3, 6.05 11.93, 4.98 11.55 C3.9 11.16, 2.98 10.75, 2.24 10.33 C1.5 9.91, 0.94 9.47, 0.56 9.03 C0.19 8.6, 0 8.14, 0 7.7 C0 7.25, 0.19 6.8, 0.56 6.36 C0.94 5.92, 1.5 5.48, 2.24 5.06 C2.98 4.65, 3.9 4.23, 4.98 3.85 C6.05 3.46, 7.31 3.09, 8.69 2.75 C10.07 2.41, 11.62 2.09, 13.27 1.8 C14.91 1.51, 16.71 1.25, 18.57 1.03 C20.43 0.81, 22.42 0.62, 24.44 0.46 C26.46 0.31, 28.57 0.19, 30.69 0.12 C32.81 0.04, 34.99 0, 37.14 0 C39.29 0, 41.47 0.04, 43.59 0.12 C45.71 0.19, 47.82 0.31, 49.84 0.46 C51.86 0.62, 53.85 0.81, 55.71 1.03 C57.57 1.25, 59.37 1.51, 61.01 1.8 C62.66 2.09, 64.21 2.41, 65.59 2.75 C66.97 3.09, 68.23 3.46, 69.3 3.85 C70.38 4.23, 71.3 4.65, 72.04 5.06 C72.77 5.48, 73.34 5.92, 73.71 6.36 C74.09 6.8, 74.18 7.47, 74.28 7.7 C74.37 7.92, 74.37 7.47, 74.28 7.7" stroke="none" stroke-width="0" fill="#ffffff"></path><path d="M74.28 7.7 C74.28 8.14, 74.09 8.6, 73.71 9.03 C73.34 9.47, 72.77 9.91, 72.04 10.33 C71.3 10.75, 70.38 11.16, 69.3 11.55 C68.23 11.93, 66.97 12.3, 65.59 12.65 C64.21 12.99, 62.66 13.31, 61.01 13.59 C59.37 13.88, 57.57 14.14, 55.71 14.36 C53.85 14.59, 51.86 14.78, 49.84 14.93 C47.82 15.08, 45.71 15.2, 43.59 15.28 C41.47 15.36, 39.29 15.39, 37.14 15.39 C34.99 15.39, 32.81 15.36, 30.69 15.28 C28.57 15.2, 26.46 15.08, 24.44 14.93 C22.42 14.78, 20.43 14.59, 18.57 14.36 C16.71 14.14, 14.91 13.88, 13.27 13.59 C11.62 13.31, 10.07 12.99, 8.69 12.65 C7.31 12.3, 6.05 11.93, 4.98 11.55 C3.9 11.16, 2.98 10.75, 2.24 10.33 C1.5 9.91, 0.94 9.47, 0.56 9.03 C0.19 8.6, 0 8.14, 0 7.7 C0 7.25, 0.19 6.8, 0.56 6.36 C0.94 5.92, 1.5 5.48, 2.24 5.06 C2.98 4.65, 3.9 4.23, 4.98 3.85 C6.05 3.46, 7.31 3.09, 8.69 2.75 C10.07 2.41, 11.62 2.09, 13.27 1.8 C14.91 1.51, 16.71 1.25, 18.57 1.03 C20.43 0.81, 22.42 0.62, 24.44 0.46 C26.46 0.31, 28.57 0.19, 30.69 0.12 C32.81 0.04, 34.99 0, 37.14 0 C39.29 0, 41.47 0.04, 43.59 0.12 C45.71 0.19, 47.82 0.31, 49.84 0.46 C51.86 0.62, 53.85 0.81, 55.71 1.03 C57.57 1.25, 59.37 1.51, 61.01 1.8 C62.66 2.09, 64.21 2.41, 65.59 2.75 C66.97 3.09, 68.23 3.46, 69.3 3.85 C70.38 4.23, 71.3 4.65, 72.04 5.06 C72.77 5.48, 73.34 5.92, 73.71 6.36 C74.09 6.8, 74.18 7.47, 74.28 7.7 C74.37 7.92, 74.37 7.47, 74.28 7.7" stroke="#000000" stroke-width="2" fill="none"></path></g><g stroke-linecap="round" transform="translate(892.2612380532146 112.02056340327363) rotate(0 37.139282614901276 7.697370794237486)"><path d="M74.28 7.7 C74.28 8.14, 74.09 8.6, 73.71 9.03 C73.34 9.47, 72.77 9.91, 72.04 10.33 C71.3 10.75, 70.38 11.16, 69.3 11.55 C68.23 11.93, 66.97 12.3, 65.59 12.65 C64.21 12.99, 62.66 13.31, 61.01 13.59 C59.37 13.88, 57.57 14.14, 55.71 14.36 C53.85 14.59, 51.86 14.78, 49.84 14.93 C47.82 15.08, 45.71 15.2, 43.59 15.28 C41.47 15.36, 39.29 15.39, 37.14 15.39 C34.99 15.39, 32.81 15.36, 30.69 15.28 C28.57 15.2, 26.46 15.08, 24.44 14.93 C22.42 14.78, 20.43 14.59, 18.57 14.36 C16.71 14.14, 14.91 13.88, 13.27 13.59 C11.62 13.31, 10.07 12.99, 8.69 12.65 C7.31 12.3, 6.05 11.93, 4.98 11.55 C3.9 11.16, 2.98 10.75, 2.24 10.33 C1.5 9.91, 0.94 9.47, 0.56 9.03 C0.19 8.6, 0 8.14, 0 7.7 C0 7.25, 0.19 6.8, 0.56 6.36 C0.94 5.92, 1.5 5.48, 2.24 5.06 C2.98 4.65, 3.9 4.23, 4.98 3.85 C6.05 3.46, 7.31 3.09, 8.69 2.75 C10.07 2.41, 11.62 2.09, 13.27 1.8 C14.91 1.51, 16.71 1.25, 18.57 1.03 C20.43 0.81, 22.42 0.62, 24.44 0.46 C26.46 0.31, 28.57 0.19, 30.69 0.12 C32.81 0.04, 34.99 0, 37.14 0 C39.29 0, 41.47 0.04, 43.59 0.12 C45.71 0.19, 47.82 0.31, 49.84 0.46 C51.86 0.62, 53.85 0.81, 55.71 1.03 C57.57 1.25, 59.37 1.51, 61.01 1.8 C62.66 2.09, 64.21 2.41, 65.59 2.75 C66.97 3.09, 68.23 3.46, 69.3 3.85 C70.38 4.23, 71.3 4.65, 72.04 5.06 C72.77 5.48, 73.34 5.92, 73.71 6.36 C74.09 6.8, 74.18 7.47, 74.28 7.7 C74.37 7.92, 74.37 7.47, 74.28 7.7" stroke="none" stroke-width="0" fill="#ffffff"></path><path d="M74.28 7.7 C74.28 8.14, 74.09 8.6, 73.71 9.03 C73.34 9.47, 72.77 9.91, 72.04 10.33 C71.3 10.75, 70.38 11.16, 69.3 11.55 C68.23 11.93, 66.97 12.3, 65.59 12.65 C64.21 12.99, 62.66 13.31, 61.01 13.59 C59.37 13.88, 57.57 14.14, 55.71 14.36 C53.85 14.59, 51.86 14.78, 49.84 14.93 C47.82 15.08, 45.71 15.2, 43.59 15.28 C41.47 15.36, 39.29 15.39, 37.14 15.39 C34.99 15.39, 32.81 15.36, 30.69 15.28 C28.57 15.2, 26.46 15.08, 24.44 14.93 C22.42 14.78, 20.43 14.59, 18.57 14.36 C16.71 14.14, 14.91 13.88, 13.27 13.59 C11.62 13.31, 10.07 12.99, 8.69 12.65 C7.31 12.3, 6.05 11.93, 4.98 11.55 C3.9 11.16, 2.98 10.75, 2.24 10.33 C1.5 9.91, 0.94 9.47, 0.56 9.03 C0.19 8.6, 0 8.14, 0 7.7 C0 7.25, 0.19 6.8, 0.56 6.36 C0.94 5.92, 1.5 5.48, 2.24 5.06 C2.98 4.65, 3.9 4.23, 4.98 3.85 C6.05 3.46, 7.31 3.09, 8.69 2.75 C10.07 2.41, 11.62 2.09, 13.27 1.8 C14.91 1.51, 16.71 1.25, 18.57 1.03 C20.43 0.81, 22.42 0.62, 24.44 0.46 C26.46 0.31, 28.57 0.19, 30.69 0.12 C32.81 0.04, 34.99 0, 37.14 0 C39.29 0, 41.47 0.04, 43.59 0.12 C45.71 0.19, 47.82 0.31, 49.84 0.46 C51.86 0.62, 53.85 0.81, 55.71 1.03 C57.57 1.25, 59.37 1.51, 61.01 1.8 C62.66 2.09, 64.21 2.41, 65.59 2.75 C66.97 3.09, 68.23 3.46, 69.3 3.85 C70.38 4.23, 71.3 4.65, 72.04 5.06 C72.77 5.48, 73.34 5.92, 73.71 6.36 C74.09 6.8, 74.18 7.47, 74.28 7.7 C74.37 7.92, 74.37 7.47, 74.28 7.7" stroke="#ffffff" stroke-width="2" fill="none"></path></g><g stroke-linecap="round" transform="translate(892.1591297390651 93.75272465475564) rotate(0 37.139282614901276 7.697370794237486)"><path d="M74.28 7.7 C74.28 8.14, 74.09 8.6, 73.71 9.03 C73.34 9.47, 72.77 9.91, 72.04 10.33 C71.3 10.75, 70.38 11.16, 69.3 11.55 C68.23 11.93, 66.97 12.3, 65.59 12.65 C64.21 12.99, 62.66 13.31, 61.01 13.59 C59.37 13.88, 57.57 14.14, 55.71 14.36 C53.85 14.59, 51.86 14.78, 49.84 14.93 C47.82 15.08, 45.71 15.2, 43.59 15.28 C41.47 15.36, 39.29 15.39, 37.14 15.39 C34.99 15.39, 32.81 15.36, 30.69 15.28 C28.57 15.2, 26.46 15.08, 24.44 14.93 C22.42 14.78, 20.43 14.59, 18.57 14.36 C16.71 14.14, 14.91 13.88, 13.27 13.59 C11.62 13.31, 10.07 12.99, 8.69 12.65 C7.31 12.3, 6.05 11.93, 4.98 11.55 C3.9 11.16, 2.98 10.75, 2.24 10.33 C1.5 9.91, 0.94 9.47, 0.56 9.03 C0.19 8.6, 0 8.14, 0 7.7 C0 7.25, 0.19 6.8, 0.56 6.36 C0.94 5.92, 1.5 5.48, 2.24 5.06 C2.98 4.65, 3.9 4.23, 4.98 3.85 C6.05 3.46, 7.31 3.09, 8.69 2.75 C10.07 2.41, 11.62 2.09, 13.27 1.8 C14.91 1.51, 16.71 1.25, 18.57 1.03 C20.43 0.81, 22.42 0.62, 24.44 0.46 C26.46 0.31, 28.57 0.19, 30.69 0.12 C32.81 0.04, 34.99 0, 37.14 0 C39.29 0, 41.47 0.04, 43.59 0.12 C45.71 0.19, 47.82 0.31, 49.84 0.46 C51.86 0.62, 53.85 0.81, 55.71 1.03 C57.57 1.25, 59.37 1.51, 61.01 1.8 C62.66 2.09, 64.21 2.41, 65.59 2.75 C66.97 3.09, 68.23 3.46, 69.3 3.85 C70.38 4.23, 71.3 4.65, 72.04 5.06 C72.77 5.48, 73.34 5.92, 73.71 6.36 C74.09 6.8, 74.18 7.47, 74.28 7.7 C74.37 7.92, 74.37 7.47, 74.28 7.7" stroke="none" stroke-width="0" fill="#ffffff"></path><path d="M74.28 7.7 C74.28 8.14, 74.09 8.6, 73.71 9.03 C73.34 9.47, 72.77 9.91, 72.04 10.33 C71.3 10.75, 70.38 11.16, 69.3 11.55 C68.23 11.93, 66.97 12.3, 65.59 12.65 C64.21 12.99, 62.66 13.31, 61.01 13.59 C59.37 13.88, 57.57 14.14, 55.71 14.36 C53.85 14.59, 51.86 14.78, 49.84 14.93 C47.82 15.08, 45.71 15.2, 43.59 15.28 C41.47 15.36, 39.29 15.39, 37.14 15.39 C34.99 15.39, 32.81 15.36, 30.69 15.28 C28.57 15.2, 26.46 15.08, 24.44 14.93 C22.42 14.78, 20.43 14.59, 18.57 14.36 C16.71 14.14, 14.91 13.88, 13.27 13.59 C11.62 13.31, 10.07 12.99, 8.69 12.65 C7.31 12.3, 6.05 11.93, 4.98 11.55 C3.9 11.16, 2.98 10.75, 2.24 10.33 C1.5 9.91, 0.94 9.47, 0.56 9.03 C0.19 8.6, 0 8.14, 0 7.7 C0 7.25, 0.19 6.8, 0.56 6.36 C0.94 5.92, 1.5 5.48, 2.24 5.06 C2.98 4.65, 3.9 4.23, 4.98 3.85 C6.05 3.46, 7.31 3.09, 8.69 2.75 C10.07 2.41, 11.62 2.09, 13.27 1.8 C14.91 1.51, 16.71 1.25, 18.57 1.03 C20.43 0.81, 22.42 0.62, 24.44 0.46 C26.46 0.31, 28.57 0.19, 30.69 0.12 C32.81 0.04, 34.99 0, 37.14 0 C39.29 0, 41.47 0.04, 43.59 0.12 C45.71 0.19, 47.82 0.31, 49.84 0.46 C51.86 0.62, 53.85 0.81, 55.71 1.03 C57.57 1.25, 59.37 1.51, 61.01 1.8 C62.66 2.09, 64.21 2.41, 65.59 2.75 C66.97 3.09, 68.23 3.46, 69.3 3.85 C70.38 4.23, 71.3 4.65, 72.04 5.06 C72.77 5.48, 73.34 5.92, 73.71 6.36 C74.09 6.8, 74.18 7.47, 74.28 7.7 C74.37 7.92, 74.37 7.47, 74.28 7.7" stroke="#000000" stroke-width="2" fill="none"></path></g><g stroke-linecap="round" transform="translate(892.0176292299175 101.3281994535837) rotate(0 37.32349701602743 1.6569622351096314)"><path d="M0.83 0 C24.61 0, 48.39 0, 73.82 0 C74.37 0, 74.65 0.28, 74.65 0.83 C74.65 1.39, 74.65 1.94, 74.65 2.49 C74.65 3.04, 74.37 3.31, 73.82 3.31 C50.79 3.31, 27.77 3.31, 0.83 3.31 C0.28 3.31, 0 3.04, 0 2.49 C0 2.01, 0 1.53, 0 0.83 C0 0.28, 0.28 0, 0.83 0" stroke="none" stroke-width="0" fill="#ffffff"></path><path d="M0.83 0 C18.74 0, 36.65 0, 73.82 0 M0.83 0 C25.82 0, 50.82 0, 73.82 0 M73.82 0 C74.37 0, 74.65 0.28, 74.65 0.83 M73.82 0 C74.37 0, 74.65 0.28, 74.65 0.83 M74.65 0.83 C74.65 1.23, 74.65 1.63, 74.65 2.49 M74.65 0.83 C74.65 1.49, 74.65 2.15, 74.65 2.49 M74.65 2.49 C74.65 3.04, 74.37 3.31, 73.82 3.31 M74.65 2.49 C74.65 3.04, 74.37 3.31, 73.82 3.31 M73.82 3.31 C55.24 3.31, 36.66 3.31, 0.83 3.31 M73.82 3.31 C58.45 3.31, 43.08 3.31, 0.83 3.31 M0.83 3.31 C0.28 3.31, 0 3.04, 0 2.49 M0.83 3.31 C0.28 3.31, 0 3.04, 0 2.49 M0 2.49 C0 2.13, 0 1.77, 0 0.83 M0 2.49 C0 1.89, 0 1.3, 0 0.83 M0 0.83 C0 0.28, 0.28 0, 0.83 0 M0 0.83 C0 0.28, 0.28 0, 0.83 0" stroke="#000000" stroke-width="2" fill="none"></path></g><g stroke-linecap="round" transform="translate(892.2612380532128 97.90567364256776) rotate(0 37.139282614901276 7.697370794237486)"><path d="M74.28 7.7 C74.28 8.14, 74.09 8.6, 73.71 9.03 C73.34 9.47, 72.77 9.91, 72.04 10.33 C71.3 10.75, 70.38 11.16, 69.3 11.55 C68.23 11.93, 66.97 12.3, 65.59 12.65 C64.21 12.99, 62.66 13.31, 61.01 13.59 C59.37 13.88, 57.57 14.14, 55.71 14.36 C53.85 14.59, 51.86 14.78, 49.84 14.93 C47.82 15.08, 45.71 15.2, 43.59 15.28 C41.47 15.36, 39.29 15.39, 37.14 15.39 C34.99 15.39, 32.81 15.36, 30.69 15.28 C28.57 15.2, 26.46 15.08, 24.44 14.93 C22.42 14.78, 20.43 14.59, 18.57 14.36 C16.71 14.14, 14.91 13.88, 13.27 13.59 C11.62 13.31, 10.07 12.99, 8.69 12.65 C7.31 12.3, 6.05 11.93, 4.98 11.55 C3.9 11.16, 2.98 10.75, 2.24 10.33 C1.5 9.91, 0.94 9.47, 0.56 9.03 C0.19 8.6, 0 8.14, 0 7.7 C0 7.25, 0.19 6.8, 0.56 6.36 C0.94 5.92, 1.5 5.48, 2.24 5.06 C2.98 4.65, 3.9 4.23, 4.98 3.85 C6.05 3.46, 7.31 3.09, 8.69 2.75 C10.07 2.41, 11.62 2.09, 13.27 1.8 C14.91 1.51, 16.71 1.25, 18.57 1.03 C20.43 0.81, 22.42 0.62, 24.44 0.46 C26.46 0.31, 28.57 0.19, 30.69 0.12 C32.81 0.04, 34.99 0, 37.14 0 C39.29 0, 41.47 0.04, 43.59 0.12 C45.71 0.19, 47.82 0.31, 49.84 0.46 C51.86 0.62, 53.85 0.81, 55.71 1.03 C57.57 1.25, 59.37 1.51, 61.01 1.8 C62.66 2.09, 64.21 2.41, 65.59 2.75 C66.97 3.09, 68.23 3.46, 69.3 3.85 C70.38 4.23, 71.3 4.65, 72.04 5.06 C72.77 5.48, 73.34 5.92, 73.71 6.36 C74.09 6.8, 74.18 7.47, 74.28 7.7 C74.37 7.92, 74.37 7.47, 74.28 7.7" stroke="none" stroke-width="0" fill="#ffffff"></path><path d="M74.28 7.7 C74.28 8.14, 74.09 8.6, 73.71 9.03 C73.34 9.47, 72.77 9.91, 72.04 10.33 C71.3 10.75, 70.38 11.16, 69.3 11.55 C68.23 11.93, 66.97 12.3, 65.59 12.65 C64.21 12.99, 62.66 13.31, 61.01 13.59 C59.37 13.88, 57.57 14.14, 55.71 14.36 C53.85 14.59, 51.86 14.78, 49.84 14.93 C47.82 15.08, 45.71 15.2, 43.59 15.28 C41.47 15.36, 39.29 15.39, 37.14 15.39 C34.99 15.39, 32.81 15.36, 30.69 15.28 C28.57 15.2, 26.46 15.08, 24.44 14.93 C22.42 14.78, 20.43 14.59, 18.57 14.36 C16.71 14.14, 14.91 13.88, 13.27 13.59 C11.62 13.31, 10.07 12.99, 8.69 12.65 C7.31 12.3, 6.05 11.93, 4.98 11.55 C3.9 11.16, 2.98 10.75, 2.24 10.33 C1.5 9.91, 0.94 9.47, 0.56 9.03 C0.19 8.6, 0 8.14, 0 7.7 C0 7.25, 0.19 6.8, 0.56 6.36 C0.94 5.92, 1.5 5.48, 2.24 5.06 C2.98 4.65, 3.9 4.23, 4.98 3.85 C6.05 3.46, 7.31 3.09, 8.69 2.75 C10.07 2.41, 11.62 2.09, 13.27 1.8 C14.91 1.51, 16.71 1.25, 18.57 1.03 C20.43 0.81, 22.42 0.62, 24.44 0.46 C26.46 0.31, 28.57 0.19, 30.69 0.12 C32.81 0.04, 34.99 0, 37.14 0 C39.29 0, 41.47 0.04, 43.59 0.12 C45.71 0.19, 47.82 0.31, 49.84 0.46 C51.86 0.62, 53.85 0.81, 55.71 1.03 C57.57 1.25, 59.37 1.51, 61.01 1.8 C62.66 2.09, 64.21 2.41, 65.59 2.75 C66.97 3.09, 68.23 3.46, 69.3 3.85 C70.38 4.23, 71.3 4.65, 72.04 5.06 C72.77 5.48, 73.34 5.92, 73.71 6.36 C74.09 6.8, 74.18 7.47, 74.28 7.7 C74.37 7.92, 74.37 7.47, 74.28 7.7" stroke="#000000" stroke-width="2" fill="none"></path></g><g stroke-linecap="round" transform="translate(892.2612380532128 92.24152926476654) rotate(0 37.139282614901276 7.697370794237486)"><path d="M74.28 7.7 C74.28 8.14, 74.09 8.6, 73.71 9.03 C73.34 9.47, 72.77 9.91, 72.04 10.33 C71.3 10.75, 70.38 11.16, 69.3 11.55 C68.23 11.93, 66.97 12.3, 65.59 12.65 C64.21 12.99, 62.66 13.31, 61.01 13.59 C59.37 13.88, 57.57 14.14, 55.71 14.36 C53.85 14.59, 51.86 14.78, 49.84 14.93 C47.82 15.08, 45.71 15.2, 43.59 15.28 C41.47 15.36, 39.29 15.39, 37.14 15.39 C34.99 15.39, 32.81 15.36, 30.69 15.28 C28.57 15.2, 26.46 15.08, 24.44 14.93 C22.42 14.78, 20.43 14.59, 18.57 14.36 C16.71 14.14, 14.91 13.88, 13.27 13.59 C11.62 13.31, 10.07 12.99, 8.69 12.65 C7.31 12.3, 6.05 11.93, 4.98 11.55 C3.9 11.16, 2.98 10.75, 2.24 10.33 C1.5 9.91, 0.94 9.47, 0.56 9.03 C0.19 8.6, 0 8.14, 0 7.7 C0 7.25, 0.19 6.8, 0.56 6.36 C0.94 5.92, 1.5 5.48, 2.24 5.06 C2.98 4.65, 3.9 4.23, 4.98 3.85 C6.05 3.46, 7.31 3.09, 8.69 2.75 C10.07 2.41, 11.62 2.09, 13.27 1.8 C14.91 1.51, 16.71 1.25, 18.57 1.03 C20.43 0.81, 22.42 0.62, 24.44 0.46 C26.46 0.31, 28.57 0.19, 30.69 0.12 C32.81 0.04, 34.99 0, 37.14 0 C39.29 0, 41.47 0.04, 43.59 0.12 C45.71 0.19, 47.82 0.31, 49.84 0.46 C51.86 0.62, 53.85 0.81, 55.71 1.03 C57.57 1.25, 59.37 1.51, 61.01 1.8 C62.66 2.09, 64.21 2.41, 65.59 2.75 C66.97 3.09, 68.23 3.46, 69.3 3.85 C70.38 4.23, 71.3 4.65, 72.04 5.06 C72.77 5.48, 73.34 5.92, 73.71 6.36 C74.09 6.8, 74.18 7.47, 74.28 7.7 C74.37 7.92, 74.37 7.47, 74.28 7.7" stroke="none" stroke-width="0" fill="#ffffff"></path><path d="M74.28 7.7 C74.28 8.14, 74.09 8.6, 73.71 9.03 C73.34 9.47, 72.77 9.91, 72.04 10.33 C71.3 10.75, 70.38 11.16, 69.3 11.55 C68.23 11.93, 66.97 12.3, 65.59 12.65 C64.21 12.99, 62.66 13.31, 61.01 13.59 C59.37 13.88, 57.57 14.14, 55.71 14.36 C53.85 14.59, 51.86 14.78, 49.84 14.93 C47.82 15.08, 45.71 15.2, 43.59 15.28 C41.47 15.36, 39.29 15.39, 37.14 15.39 C34.99 15.39, 32.81 15.36, 30.69 15.28 C28.57 15.2, 26.46 15.08, 24.44 14.93 C22.42 14.78, 20.43 14.59, 18.57 14.36 C16.71 14.14, 14.91 13.88, 13.27 13.59 C11.62 13.31, 10.07 12.99, 8.69 12.65 C7.31 12.3, 6.05 11.93, 4.98 11.55 C3.9 11.16, 2.98 10.75, 2.24 10.33 C1.5 9.91, 0.94 9.47, 0.56 9.03 C0.19 8.6, 0 8.14, 0 7.7 C0 7.25, 0.19 6.8, 0.56 6.36 C0.94 5.92, 1.5 5.48, 2.24 5.06 C2.98 4.65, 3.9 4.23, 4.98 3.85 C6.05 3.46, 7.31 3.09, 8.69 2.75 C10.07 2.41, 11.62 2.09, 13.27 1.8 C14.91 1.51, 16.71 1.25, 18.57 1.03 C20.43 0.81, 22.42 0.62, 24.44 0.46 C26.46 0.31, 28.57 0.19, 30.69 0.12 C32.81 0.04, 34.99 0, 37.14 0 C39.29 0, 41.47 0.04, 43.59 0.12 C45.71 0.19, 47.82 0.31, 49.84 0.46 C51.86 0.62, 53.85 0.81, 55.71 1.03 C57.57 1.25, 59.37 1.51, 61.01 1.8 C62.66 2.09, 64.21 2.41, 65.59 2.75 C66.97 3.09, 68.23 3.46, 69.3 3.85 C70.38 4.23, 71.3 4.65, 72.04 5.06 C72.77 5.48, 73.34 5.92, 73.71 6.36 C74.09 6.8, 74.18 7.47, 74.28 7.7 C74.37 7.92, 74.37 7.47, 74.28 7.7" stroke="#ffffff" stroke-width="2" fill="none"></path></g><g stroke-linecap="round" transform="translate(892.2018436310418 77.19922537317007) rotate(0 37.139282614901276 7.697370794237486)"><path d="M74.28 7.7 C74.28 8.14, 74.09 8.6, 73.71 9.03 C73.34 9.47, 72.77 9.91, 72.04 10.33 C71.3 10.75, 70.38 11.16, 69.3 11.55 C68.23 11.93, 66.97 12.3, 65.59 12.65 C64.21 12.99, 62.66 13.31, 61.01 13.59 C59.37 13.88, 57.57 14.14, 55.71 14.36 C53.85 14.59, 51.86 14.78, 49.84 14.93 C47.82 15.08, 45.71 15.2, 43.59 15.28 C41.47 15.36, 39.29 15.39, 37.14 15.39 C34.99 15.39, 32.81 15.36, 30.69 15.28 C28.57 15.2, 26.46 15.08, 24.44 14.93 C22.42 14.78, 20.43 14.59, 18.57 14.36 C16.71 14.14, 14.91 13.88, 13.27 13.59 C11.62 13.31, 10.07 12.99, 8.69 12.65 C7.31 12.3, 6.05 11.93, 4.98 11.55 C3.9 11.16, 2.98 10.75, 2.24 10.33 C1.5 9.91, 0.94 9.47, 0.56 9.03 C0.19 8.6, 0 8.14, 0 7.7 C0 7.25, 0.19 6.8, 0.56 6.36 C0.94 5.92, 1.5 5.48, 2.24 5.06 C2.98 4.65, 3.9 4.23, 4.98 3.85 C6.05 3.46, 7.31 3.09, 8.69 2.75 C10.07 2.41, 11.62 2.09, 13.27 1.8 C14.91 1.51, 16.71 1.25, 18.57 1.03 C20.43 0.81, 22.42 0.62, 24.44 0.46 C26.46 0.31, 28.57 0.19, 30.69 0.12 C32.81 0.04, 34.99 0, 37.14 0 C39.29 0, 41.47 0.04, 43.59 0.12 C45.71 0.19, 47.82 0.31, 49.84 0.46 C51.86 0.62, 53.85 0.81, 55.71 1.03 C57.57 1.25, 59.37 1.51, 61.01 1.8 C62.66 2.09, 64.21 2.41, 65.59 2.75 C66.97 3.09, 68.23 3.46, 69.3 3.85 C70.38 4.23, 71.3 4.65, 72.04 5.06 C72.77 5.48, 73.34 5.92, 73.71 6.36 C74.09 6.8, 74.18 7.47, 74.28 7.7 C74.37 7.92, 74.37 7.47, 74.28 7.7" stroke="none" stroke-width="0" fill="#ffffff"></path><path d="M74.28 7.7 C74.28 8.14, 74.09 8.6, 73.71 9.03 C73.34 9.47, 72.77 9.91, 72.04 10.33 C71.3 10.75, 70.38 11.16, 69.3 11.55 C68.23 11.93, 66.97 12.3, 65.59 12.65 C64.21 12.99, 62.66 13.31, 61.01 13.59 C59.37 13.88, 57.57 14.14, 55.71 14.36 C53.85 14.59, 51.86 14.78, 49.84 14.93 C47.82 15.08, 45.71 15.2, 43.59 15.28 C41.47 15.36, 39.29 15.39, 37.14 15.39 C34.99 15.39, 32.81 15.36, 30.69 15.28 C28.57 15.2, 26.46 15.08, 24.44 14.93 C22.42 14.78, 20.43 14.59, 18.57 14.36 C16.71 14.14, 14.91 13.88, 13.27 13.59 C11.62 13.31, 10.07 12.99, 8.69 12.65 C7.31 12.3, 6.05 11.93, 4.98 11.55 C3.9 11.16, 2.98 10.75, 2.24 10.33 C1.5 9.91, 0.94 9.47, 0.56 9.03 C0.19 8.6, 0 8.14, 0 7.7 C0 7.25, 0.19 6.8, 0.56 6.36 C0.94 5.92, 1.5 5.48, 2.24 5.06 C2.98 4.65, 3.9 4.23, 4.98 3.85 C6.05 3.46, 7.31 3.09, 8.69 2.75 C10.07 2.41, 11.62 2.09, 13.27 1.8 C14.91 1.51, 16.71 1.25, 18.57 1.03 C20.43 0.81, 22.42 0.62, 24.44 0.46 C26.46 0.31, 28.57 0.19, 30.69 0.12 C32.81 0.04, 34.99 0, 37.14 0 C39.29 0, 41.47 0.04, 43.59 0.12 C45.71 0.19, 47.82 0.31, 49.84 0.46 C51.86 0.62, 53.85 0.81, 55.71 1.03 C57.57 1.25, 59.37 1.51, 61.01 1.8 C62.66 2.09, 64.21 2.41, 65.59 2.75 C66.97 3.09, 68.23 3.46, 69.3 3.85 C70.38 4.23, 71.3 4.65, 72.04 5.06 C72.77 5.48, 73.34 5.92, 73.71 6.36 C74.09 6.8, 74.18 7.47, 74.28 7.7 C74.37 7.92, 74.37 7.47, 74.28 7.7" stroke="#000000" stroke-width="2" fill="none"></path></g><g stroke-linecap="round" transform="translate(892.2018436310418 71.90471739159193) rotate(0 37.139282614901276 7.697370794237486)"><path d="M74.28 7.7 C74.28 8.14, 74.09 8.6, 73.71 9.03 C73.34 9.47, 72.77 9.91, 72.04 10.33 C71.3 10.75, 70.38 11.16, 69.3 11.55 C68.23 11.93, 66.97 12.3, 65.59 12.65 C64.21 12.99, 62.66 13.31, 61.01 13.59 C59.37 13.88, 57.57 14.14, 55.71 14.36 C53.85 14.59, 51.86 14.78, 49.84 14.93 C47.82 15.08, 45.71 15.2, 43.59 15.28 C41.47 15.36, 39.29 15.39, 37.14 15.39 C34.99 15.39, 32.81 15.36, 30.69 15.28 C28.57 15.2, 26.46 15.08, 24.44 14.93 C22.42 14.78, 20.43 14.59, 18.57 14.36 C16.71 14.14, 14.91 13.88, 13.27 13.59 C11.62 13.31, 10.07 12.99, 8.69 12.65 C7.31 12.3, 6.05 11.93, 4.98 11.55 C3.9 11.16, 2.98 10.75, 2.24 10.33 C1.5 9.91, 0.94 9.47, 0.56 9.03 C0.19 8.6, 0 8.14, 0 7.7 C0 7.25, 0.19 6.8, 0.56 6.36 C0.94 5.92, 1.5 5.48, 2.24 5.06 C2.98 4.65, 3.9 4.23, 4.98 3.85 C6.05 3.46, 7.31 3.09, 8.69 2.75 C10.07 2.41, 11.62 2.09, 13.27 1.8 C14.91 1.51, 16.71 1.25, 18.57 1.03 C20.43 0.81, 22.42 0.62, 24.44 0.46 C26.46 0.31, 28.57 0.19, 30.69 0.12 C32.81 0.04, 34.99 0, 37.14 0 C39.29 0, 41.47 0.04, 43.59 0.12 C45.71 0.19, 47.82 0.31, 49.84 0.46 C51.86 0.62, 53.85 0.81, 55.71 1.03 C57.57 1.25, 59.37 1.51, 61.01 1.8 C62.66 2.09, 64.21 2.41, 65.59 2.75 C66.97 3.09, 68.23 3.46, 69.3 3.85 C70.38 4.23, 71.3 4.65, 72.04 5.06 C72.77 5.48, 73.34 5.92, 73.71 6.36 C74.09 6.8, 74.18 7.47, 74.28 7.7 C74.37 7.92, 74.37 7.47, 74.28 7.7" stroke="none" stroke-width="0" fill="#ffffff"></path><path d="M74.28 7.7 C74.28 8.14, 74.09 8.6, 73.71 9.03 C73.34 9.47, 72.77 9.91, 72.04 10.33 C71.3 10.75, 70.38 11.16, 69.3 11.55 C68.23 11.93, 66.97 12.3, 65.59 12.65 C64.21 12.99, 62.66 13.31, 61.01 13.59 C59.37 13.88, 57.57 14.14, 55.71 14.36 C53.85 14.59, 51.86 14.78, 49.84 14.93 C47.82 15.08, 45.71 15.2, 43.59 15.28 C41.47 15.36, 39.29 15.39, 37.14 15.39 C34.99 15.39, 32.81 15.36, 30.69 15.28 C28.57 15.2, 26.46 15.08, 24.44 14.93 C22.42 14.78, 20.43 14.59, 18.57 14.36 C16.71 14.14, 14.91 13.88, 13.27 13.59 C11.62 13.31, 10.07 12.99, 8.69 12.65 C7.31 12.3, 6.05 11.93, 4.98 11.55 C3.9 11.16, 2.98 10.75, 2.24 10.33 C1.5 9.91, 0.94 9.47, 0.56 9.03 C0.19 8.6, 0 8.14, 0 7.7 C0 7.25, 0.19 6.8, 0.56 6.36 C0.94 5.92, 1.5 5.48, 2.24 5.06 C2.98 4.65, 3.9 4.23, 4.98 3.85 C6.05 3.46, 7.31 3.09, 8.69 2.75 C10.07 2.41, 11.62 2.09, 13.27 1.8 C14.91 1.51, 16.71 1.25, 18.57 1.03 C20.43 0.81, 22.42 0.62, 24.44 0.46 C26.46 0.31, 28.57 0.19, 30.69 0.12 C32.81 0.04, 34.99 0, 37.14 0 C39.29 0, 41.47 0.04, 43.59 0.12 C45.71 0.19, 47.82 0.31, 49.84 0.46 C51.86 0.62, 53.85 0.81, 55.71 1.03 C57.57 1.25, 59.37 1.51, 61.01 1.8 C62.66 2.09, 64.21 2.41, 65.59 2.75 C66.97 3.09, 68.23 3.46, 69.3 3.85 C70.38 4.23, 71.3 4.65, 72.04 5.06 C72.77 5.48, 73.34 5.92, 73.71 6.36 C74.09 6.8, 74.18 7.47, 74.28 7.7 C74.37 7.92, 74.37 7.47, 74.28 7.7" stroke="#000000" stroke-width="2" fill="none"></path></g><g stroke-linecap="round" transform="translate(893.3462007966964 72.48758085155623) rotate(0 35.9949254492476 9.258916613041492)"><path d="M71.99 9.26 C71.99 9.79, 71.8 10.34, 71.44 10.87 C71.08 11.39, 70.53 11.92, 69.82 12.43 C69.11 12.93, 68.21 13.42, 67.17 13.89 C66.13 14.35, 64.91 14.8, 63.57 15.21 C62.23 15.62, 60.73 16.01, 59.13 16.35 C57.54 16.7, 55.8 17.01, 53.99 17.28 C52.19 17.55, 50.26 17.78, 48.31 17.96 C46.35 18.14, 44.3 18.28, 42.25 18.38 C40.19 18.47, 38.08 18.52, 35.99 18.52 C33.91 18.52, 31.8 18.47, 29.74 18.38 C27.69 18.28, 25.64 18.14, 23.68 17.96 C21.73 17.78, 19.8 17.55, 18 17.28 C16.19 17.01, 14.45 16.7, 12.86 16.35 C11.26 16.01, 9.76 15.62, 8.42 15.21 C7.08 14.8, 5.86 14.35, 4.82 13.89 C3.78 13.42, 2.88 12.93, 2.17 12.43 C1.46 11.92, 0.91 11.39, 0.55 10.87 C0.19 10.34, 0 9.79, 0 9.26 C0 8.72, 0.19 8.18, 0.55 7.65 C0.91 7.12, 1.46 6.6, 2.17 6.09 C2.88 5.59, 3.78 5.09, 4.82 4.63 C5.86 4.17, 7.08 3.72, 8.42 3.31 C9.76 2.9, 11.26 2.51, 12.86 2.17 C14.45 1.82, 16.19 1.51, 18 1.24 C19.8 0.97, 21.73 0.74, 23.68 0.56 C25.64 0.38, 27.69 0.23, 29.74 0.14 C31.8 0.05, 33.91 0, 35.99 0 C38.08 0, 40.19 0.05, 42.25 0.14 C44.3 0.23, 46.35 0.38, 48.31 0.56 C50.26 0.74, 52.19 0.97, 53.99 1.24 C55.8 1.51, 57.54 1.82, 59.13 2.17 C60.73 2.51, 62.23 2.9, 63.57 3.31 C64.91 3.72, 66.13 4.17, 67.17 4.63 C68.21 5.09, 69.11 5.59, 69.82 6.09 C70.53 6.6, 71.08 7.12, 71.44 7.65 C71.8 8.18, 71.9 8.99, 71.99 9.26 C72.08 9.53, 72.08 8.99, 71.99 9.26" stroke="none" stroke-width="0" fill="#ffffff"></path><path d="M71.99 9.26 C71.99 9.79, 71.8 10.34, 71.44 10.87 C71.08 11.39, 70.53 11.92, 69.82 12.43 C69.11 12.93, 68.21 13.42, 67.17 13.89 C66.13 14.35, 64.91 14.8, 63.57 15.21 C62.23 15.62, 60.73 16.01, 59.13 16.35 C57.54 16.7, 55.8 17.01, 53.99 17.28 C52.19 17.55, 50.26 17.78, 48.31 17.96 C46.35 18.14, 44.3 18.28, 42.25 18.38 C40.19 18.47, 38.08 18.52, 35.99 18.52 C33.91 18.52, 31.8 18.47, 29.74 18.38 C27.69 18.28, 25.64 18.14, 23.68 17.96 C21.73 17.78, 19.8 17.55, 18 17.28 C16.19 17.01, 14.45 16.7, 12.86 16.35 C11.26 16.01, 9.76 15.62, 8.42 15.21 C7.08 14.8, 5.86 14.35, 4.82 13.89 C3.78 13.42, 2.88 12.93, 2.17 12.43 C1.46 11.92, 0.91 11.39, 0.55 10.87 C0.19 10.34, 0 9.79, 0 9.26 C0 8.72, 0.19 8.18, 0.55 7.65 C0.91 7.12, 1.46 6.6, 2.17 6.09 C2.88 5.59, 3.78 5.09, 4.82 4.63 C5.86 4.17, 7.08 3.72, 8.42 3.31 C9.76 2.9, 11.26 2.51, 12.86 2.17 C14.45 1.82, 16.19 1.51, 18 1.24 C19.8 0.97, 21.73 0.74, 23.68 0.56 C25.64 0.38, 27.69 0.23, 29.74 0.14 C31.8 0.05, 33.91 0, 35.99 0 C38.08 0, 40.19 0.05, 42.25 0.14 C44.3 0.23, 46.35 0.38, 48.31 0.56 C50.26 0.74, 52.19 0.97, 53.99 1.24 C55.8 1.51, 57.54 1.82, 59.13 2.17 C60.73 2.51, 62.23 2.9, 63.57 3.31 C64.91 3.72, 66.13 4.17, 67.17 4.63 C68.21 5.09, 69.11 5.59, 69.82 6.09 C70.53 6.6, 71.08 7.12, 71.44 7.65 C71.8 8.18, 71.9 8.99, 71.99 9.26 C72.08 9.53, 72.08 8.99, 71.99 9.26" stroke="#000000" stroke-width="2" fill="none"></path></g><g stroke-linecap="round"><g transform="translate(966.5977325582135 79.45287204431361) rotate(0 0.08781018968147691 31.92168309104113)"><path d="M0 0 C0.05 17.07, 0.09 34.14, 0.18 63.84 M0 0 C0.06 22.61, 0.12 45.23, 0.18 63.84" stroke="#000000" stroke-width="2" fill="none"></path></g></g><mask></mask><g stroke-linecap="round"><g transform="translate(892.1284165367506 79.7163202007223) rotate(0 -0.13172935441343725 31.702143546945763)"><path d="M0 0 C-0.1 23.21, -0.19 46.42, -0.26 63.4 M0 0 C-0.09 22.25, -0.18 44.5, -0.26 63.4" stroke="#000000" stroke-width="2" fill="none"></path></g></g><mask></mask><g stroke-linecap="round" transform="translate(899.8715985056588 531.2379604689099) rotate(0 32.434453594079514 39.20098460676445)"><path d="M64.87 39.2 C64.87 41.25, 64.73 43.31, 64.47 45.33 C64.21 47.35, 63.8 49.37, 63.28 51.31 C62.76 53.26, 62.1 55.18, 61.33 57 C60.57 58.82, 59.67 60.59, 58.67 62.24 C57.68 63.9, 56.56 65.47, 55.37 66.92 C54.17 68.37, 52.87 69.71, 51.5 70.92 C50.13 72.12, 48.67 73.2, 47.16 74.13 C45.65 75.06, 44.07 75.85, 42.46 76.48 C40.85 77.12, 39.18 77.6, 37.51 77.92 C35.84 78.24, 34.13 78.4, 32.43 78.4 C30.74 78.4, 29.03 78.24, 27.36 77.92 C25.69 77.6, 24.02 77.12, 22.41 76.48 C20.8 75.85, 19.22 75.06, 17.71 74.13 C16.2 73.2, 14.74 72.12, 13.37 70.92 C12 69.71, 10.7 68.37, 9.5 66.92 C8.3 65.47, 7.19 63.9, 6.19 62.24 C5.2 60.59, 4.3 58.82, 3.54 57 C2.77 55.18, 2.11 53.26, 1.59 51.31 C1.06 49.37, 0.66 47.35, 0.4 45.33 C0.13 43.31, 0 41.25, 0 39.2 C0 37.16, 0.13 35.09, 0.4 33.07 C0.66 31.05, 1.06 29.03, 1.59 27.09 C2.11 25.14, 2.77 23.23, 3.54 21.4 C4.3 19.58, 5.2 17.81, 6.19 16.16 C7.19 14.51, 8.3 12.93, 9.5 11.48 C10.7 10.04, 12 8.69, 13.37 7.49 C14.74 6.29, 16.2 5.2, 17.71 4.27 C19.22 3.34, 20.8 2.55, 22.41 1.92 C24.02 1.29, 25.69 0.8, 27.36 0.48 C29.03 0.16, 30.74 0, 32.43 0 C34.13 0, 35.84 0.16, 37.51 0.48 C39.18 0.8, 40.85 1.29, 42.46 1.92 C44.07 2.55, 45.65 3.34, 47.16 4.27 C48.67 5.2, 50.13 6.29, 51.5 7.49 C52.87 8.69, 54.17 10.04, 55.37 11.48 C56.56 12.93, 57.68 14.51, 58.67 16.16 C59.67 17.81, 60.57 19.58, 61.33 21.4 C62.1 23.23, 62.76 25.14, 63.28 27.09 C63.8 29.03, 64.21 31.05, 64.47 33.07 C64.73 35.09, 64.8 38.18, 64.87 39.2 C64.94 40.22, 64.94 38.18, 64.87 39.2" stroke="none" stroke-width="0" fill="#fff"></path><path d="M64.87 39.2 C64.87 41.25, 64.73 43.31, 64.47 45.33 C64.21 47.35, 63.8 49.37, 63.28 51.31 C62.76 53.26, 62.1 55.18, 61.33 57 C60.57 58.82, 59.67 60.59, 58.67 62.24 C57.68 63.9, 56.56 65.47, 55.37 66.92 C54.17 68.37, 52.87 69.71, 51.5 70.92 C50.13 72.12, 48.67 73.2, 47.16 74.13 C45.65 75.06, 44.07 75.85, 42.46 76.48 C40.85 77.12, 39.18 77.6, 37.51 77.92 C35.84 78.24, 34.13 78.4, 32.43 78.4 C30.74 78.4, 29.03 78.24, 27.36 77.92 C25.69 77.6, 24.02 77.12, 22.41 76.48 C20.8 75.85, 19.22 75.06, 17.71 74.13 C16.2 73.2, 14.74 72.12, 13.37 70.92 C12 69.71, 10.7 68.37, 9.5 66.92 C8.3 65.47, 7.19 63.9, 6.19 62.24 C5.2 60.59, 4.3 58.82, 3.54 57 C2.77 55.18, 2.11 53.26, 1.59 51.31 C1.06 49.37, 0.66 47.35, 0.4 45.33 C0.13 43.31, 0 41.25, 0 39.2 C0 37.16, 0.13 35.09, 0.4 33.07 C0.66 31.05, 1.06 29.03, 1.59 27.09 C2.11 25.14, 2.77 23.23, 3.54 21.4 C4.3 19.58, 5.2 17.81, 6.19 16.16 C7.19 14.51, 8.3 12.93, 9.5 11.48 C10.7 10.04, 12 8.69, 13.37 7.49 C14.74 6.29, 16.2 5.2, 17.71 4.27 C19.22 3.34, 20.8 2.55, 22.41 1.92 C24.02 1.29, 25.69 0.8, 27.36 0.48 C29.03 0.16, 30.74 0, 32.43 0 C34.13 0, 35.84 0.16, 37.51 0.48 C39.18 0.8, 40.85 1.29, 42.46 1.92 C44.07 2.55, 45.65 3.34, 47.16 4.27 C48.67 5.2, 50.13 6.29, 51.5 7.49 C52.87 8.69, 54.17 10.04, 55.37 11.48 C56.56 12.93, 57.68 14.51, 58.67 16.16 C59.67 17.81, 60.57 19.58, 61.33 21.4 C62.1 23.23, 62.76 25.14, 63.28 27.09 C63.8 29.03, 64.21 31.05, 64.47 33.07 C64.73 35.09, 64.8 38.18, 64.87 39.2 C64.94 40.22, 64.94 38.18, 64.87 39.2" stroke="transparent" stroke-width="1" fill="none"></path></g><g stroke-linecap="round"><g transform="translate(885.1380984032076 573.1694036881136) rotate(0 41.51920995620367 18.149125531499067)" fill-rule="evenodd"><path d="M0 0 L0.18 14.79 L63.82 46.65 L82.25 33.6 L83.04 19.3 L21.32 -10.36 L0 0" stroke="none" stroke-width="0" fill="#fff" fill-rule="evenodd"></path><path d="M0 0 C0.06 4.99, 0.12 9.99, 0.18 14.79 M0 0 C0.04 3.48, 0.08 6.97, 0.18 14.79 M0.18 14.79 C25.6 27.52, 51.02 40.24, 63.82 46.65 M0.18 14.79 C14.32 21.87, 28.45 28.95, 63.82 46.65 M63.82 46.65 C70.64 41.83, 77.45 37, 82.25 33.6 M63.82 46.65 C68.77 43.15, 73.73 39.64, 82.25 33.6 M82.25 33.6 C82.5 29.1, 82.75 24.59, 83.04 19.3 M82.25 33.6 C82.52 28.78, 82.78 23.96, 83.04 19.3 M83.04 19.3 C64.16 10.23, 45.29 1.16, 21.32 -10.36 M83.04 19.3 C64.37 10.33, 45.71 1.36, 21.32 -10.36 M21.32 -10.36 C14.79 -7.19, 8.27 -4.02, 0 0 M21.32 -10.36 C16.77 -8.15, 12.23 -5.94, 0 0 M0 0 C0 0, 0 0, 0 0 M0 0 C0 0, 0 0, 0 0" stroke="#495057" stroke-width="2" fill="none"></path></g></g><mask></mask><g stroke-linecap="round"><g transform="translate(886.655639566512 573.6405435127199) rotate(0 40.21396324780517 15.99910064594701)"><path d="M0 0 C22.71 11.85, 45.42 23.71, 61.3 32 M0 0 C15.91 8.31, 31.82 16.61, 61.3 32 M61.3 32 C67.01 28.01, 72.72 24.02, 80.43 18.64 M61.3 32 C68.93 26.67, 76.57 21.33, 80.43 18.64" stroke="#495057" stroke-width="2" fill="none"></path></g></g><mask></mask><g stroke-linecap="round"><g transform="translate(948.6858446547203 619.295096224972) rotate(0 -0.13917204793415294 -6.304228473246894)"><path d="M0 0 C-0.1 -4.53, -0.2 -9.05, -0.28 -12.61 M0 0 C-0.09 -3.93, -0.17 -7.87, -0.28 -12.61" stroke="#495057" stroke-width="2" fill="none"></path></g></g><mask></mask><g stroke-linecap="round"><g transform="translate(911.7675624383364 509.0253486950696) rotate(0 30.061078691100192 40.06225686206858)" fill-rule="evenodd"><path d="M0 0 C4.52 0.6, 17.87 0.29, 27.15 3.63 C36.43 6.96, 50.2 13.11, 55.69 20.04 C61.19 26.96, 59.74 37.48, 60.12 45.17 C60.5 52.86, 60.56 60.34, 57.98 66.16 C55.4 71.99, 48.89 78.95, 44.64 80.12 C40.4 81.3, 39.64 81.37, 32.5 73.2 C25.36 65.02, 7.17 42.45, 1.82 31.1 C-3.53 19.74, 0.63 9.39, 0.39 5.05" stroke="none" stroke-width="0" fill="#fff" fill-rule="evenodd"></path><path d="M0 0 C4.52 0.6, 17.87 0.29, 27.15 3.63 C36.43 6.96, 50.2 13.11, 55.69 20.04 C61.19 26.96, 59.74 37.48, 60.12 45.17 C60.5 52.86, 60.56 60.34, 57.98 66.16 C55.4 71.99, 48.89 78.95, 44.64 80.12 C40.4 81.3, 39.64 81.37, 32.5 73.2 C25.36 65.02, 7.17 42.45, 1.82 31.1 C-3.53 19.74, 0.63 9.39, 0.39 5.05 M0 0 C4.52 0.6, 17.87 0.29, 27.15 3.63 C36.43 6.96, 50.2 13.11, 55.69 20.04 C61.19 26.96, 59.74 37.48, 60.12 45.17 C60.5 52.86, 60.56 60.34, 57.98 66.16 C55.4 71.99, 48.89 78.95, 44.64 80.12 C40.4 81.3, 39.64 81.37, 32.5 73.2 C25.36 65.02, 7.17 42.45, 1.82 31.1 C-3.53 19.74, 0.63 9.39, 0.39 5.05" stroke="#495057" stroke-width="2" fill="none"></path></g></g><mask></mask><g stroke-linecap="round"><g transform="translate(890.7397393310639 549.3537545180025) rotate(0 36.78760847402964 1.7349134521004999)" fill-rule="evenodd"><path d="M0 0 C1.13 3.6, -2.83 14.2, 6.77 21.6 C16.36 29, 46.53 42.91, 57.57 44.41 C68.6 45.91, 70.31 40.08, 72.98 30.62 C75.65 21.16, 75.86 -2.85, 73.58 -12.33 C71.29 -21.82, 68.06 -21.5, 59.29 -26.27 C50.52 -31.04, 30.35 -39.79, 20.94 -40.94 C11.53 -42.1, 6.32 -40.03, 2.83 -33.21 C-0.66 -26.38, 0.47 -5.53, 0 0" stroke="none" stroke-width="0" fill="#fff" fill-rule="evenodd"></path><path d="M0 0 C1.13 3.6, -2.83 14.2, 6.77 21.6 C16.36 29, 46.53 42.91, 57.57 44.41 C68.6 45.91, 70.31 40.08, 72.98 30.62 C75.65 21.16, 75.86 -2.85, 73.58 -12.33 C71.29 -21.82, 68.06 -21.5, 59.29 -26.27 C50.52 -31.04, 30.35 -39.79, 20.94 -40.94 C11.53 -42.1, 6.32 -40.03, 2.83 -33.21 C-0.66 -26.38, 0.47 -5.53, 0 0 M0 0 C1.13 3.6, -2.83 14.2, 6.77 21.6 C16.36 29, 46.53 42.91, 57.57 44.41 C68.6 45.91, 70.31 40.08, 72.98 30.62 C75.65 21.16, 75.86 -2.85, 73.58 -12.33 C71.29 -21.82, 68.06 -21.5, 59.29 -26.27 C50.52 -31.04, 30.35 -39.79, 20.94 -40.94 C11.53 -42.1, 6.32 -40.03, 2.83 -33.21 C-0.66 -26.38, 0.47 -5.53, 0 0" stroke="#495057" stroke-width="2" fill="none"></path></g></g><mask></mask><g stroke-linecap="round"><g transform="translate(895.7345739987277 548.6545979119533) rotate(0 31.217716672897495 1.3081709843866065)" fill-rule="evenodd"><path d="M0 0 C0.95 3.03, -1.98 11.98, 5.69 18.16 C13.35 24.33, 36.56 35.16, 45.98 37.03 C55.41 38.89, 59.5 36.83, 62.24 29.33 C64.98 21.84, 64.5 0.6, 62.44 -7.97 C60.37 -16.54, 57.3 -17.67, 49.83 -22.08 C42.36 -26.49, 25.51 -33.44, 17.6 -34.41 C9.69 -35.38, 5.31 -33.64, 2.38 -27.91 C-0.55 -22.17, 0.4 -4.65, 0 0" stroke="none" stroke-width="0" fill="#fff" fill-rule="evenodd"></path><path d="M0 0 C0.95 3.03, -1.98 11.98, 5.69 18.16 C13.35 24.33, 36.56 35.16, 45.98 37.03 C55.41 38.89, 59.5 36.83, 62.24 29.33 C64.98 21.84, 64.5 0.6, 62.44 -7.97 C60.37 -16.54, 57.3 -17.67, 49.83 -22.08 C42.36 -26.49, 25.51 -33.44, 17.6 -34.41 C9.69 -35.38, 5.31 -33.64, 2.38 -27.91 C-0.55 -22.17, 0.4 -4.65, 0 0 M0 0 C0.95 3.03, -1.98 11.98, 5.69 18.16 C13.35 24.33, 36.56 35.16, 45.98 37.03 C55.41 38.89, 59.5 36.83, 62.24 29.33 C64.98 21.84, 64.5 0.6, 62.44 -7.97 C60.37 -16.54, 57.3 -17.67, 49.83 -22.08 C42.36 -26.49, 25.51 -33.44, 17.6 -34.41 C9.69 -35.38, 5.31 -33.64, 2.38 -27.91 C-0.55 -22.17, 0.4 -4.65, 0 0" stroke="#495057" stroke-width="2" fill="none"></path></g></g><mask></mask><g stroke-linecap="round"><g transform="translate(930.6999906545825 602.422713835409) rotate(0 6.322826424542654 4.869303108555641)" fill-rule="evenodd"><path d="M0 0 L12.6 6.33 L12.65 9.74 L0.24 3.71 L0 0" stroke="none" stroke-width="0" fill="#fff" fill-rule="evenodd"></path><path d="M0 0 C3.64 1.83, 7.29 3.66, 12.6 6.33 M0 0 C4.31 2.17, 8.62 4.33, 12.6 6.33 M12.6 6.33 C12.61 7.15, 12.62 7.98, 12.65 9.74 M12.6 6.33 C12.61 7.56, 12.63 8.8, 12.65 9.74 M12.65 9.74 C8.07 7.52, 3.5 5.3, 0.24 3.71 M12.65 9.74 C9.35 8.14, 6.05 6.54, 0.24 3.71 M0.24 3.71 C0.18 2.85, 0.13 1.98, 0 0 M0.24 3.71 C0.16 2.45, 0.08 1.18, 0 0 M0 0 C0 0, 0 0, 0 0 M0 0 C0 0, 0 0, 0 0" stroke="#495057" stroke-width="1" fill="none"></path></g></g><mask></mask></svg>